<?xml version="1.0" encoding="utf-8"?>
<!-- Generator: Adobe Illustrator 26.0.1, SVG Export Plug-In . SVG Version: 6.00 Build 0)  -->
<svg version="1.1" id="Слой_1" xmlns="http://www.w3.org/2000/svg" xmlns:xlink="http://www.w3.org/1999/xlink" x="0px" y="0px"
	 viewBox="0 0 500 500" style="enable-background:new 0 0 500 500;" xml:space="preserve">
<style type="text/css">
	.st0{fill-rule:evenodd;clip-rule:evenodd;fill:#FFFFFF;}
</style>
<g id="logo_x2F_lable_x2F_light_x5F_white">
	<path id="final" class="st0" d="M263,31.8c38.9,17.8,76.5,39.7,109.3,63.5s64.3,51.5,94.5,84.5c6.1,6.6,9,15.7,8.1,24.5
		c-4.7,42.3-12.8,82.3-26.1,123.1c-13.3,40.8-28.8,76.4-51.7,116.3c-4.6,8-12.4,13.6-21.4,15.4c-41.9,8.2-83.8,12.4-125.7,12.4
		c-41.9,0-83.9-4.1-125.8-12.4c-9-1.8-16.7-7.4-21.2-15.3c-20.8-36.2-38.3-75-51.1-114.4s-20.7-73.5-26.7-124.9
		c-1.1-9.1,2-18.1,8.1-24.9c28.7-31.3,60-59.4,93.9-84.1c32.8-23.8,71.2-46.4,109.6-63.8C245.3,28.1,254.7,28,263,31.8z M238.2,53.6
		c-34.5,15.7-69.2,36-98.7,57.4C109,133.2,80.8,158.5,55,186.7c-5.5,6.1-8.3,14.2-7.3,22.4c5.4,46.3,12.6,77,24.1,112.5
		s27.2,70.4,46,103c4.1,7.1,11,12.1,19.1,13.7c37.7,7.5,75.5,11.2,113.2,11.2c37.7,0,75.4-3.7,113.1-11.1
		c8.1-1.6,15.1-6.6,19.3-13.8c20.5-35.9,34.5-68,46.5-104.7c12-36.7,19.3-72.8,23.5-110.9c0.9-8-1.8-16.1-7.2-22.1
		c-27.2-29.7-55.5-54.7-85-76.1s-63.3-41.2-98.3-57.2C254.3,50.1,245.7,50.2,238.2,53.6z M389.2,307.3l-72.8,20.6
		c-17.1,4.9-27,7.8-29.7,8.8c-7.8,2.7-8.1,8.9-4.5,13.7l55.5,65.8c1.8,2.6-1.9,7.7-6.1,4.9l-73.4-48.1c-3.2-2.1-4.9-2.9-8.2-2.9
		s-5,0.8-8.2,2.9L168.5,421c-4.5,2.9-8-2.3-6.1-4.9l55-65.2c3.9-4.7,4.1-10.9-3.2-13.9l-0.9-0.3c-5.4-1.9-39.6-11.7-102.5-29.3
		c-5.1-2.2-4.3-7.2,2-6.9c51.3,5.4,97,8.2,137.1,8.2s85.8-2.7,137.1-8.2C393.5,300.1,394.2,305.1,389.2,307.3z M265,96.5
		c0.9,0,2.2,0.2,3,0.6c12.3,5.8,33.5,17.1,54.2,30.8c20.4,13.5,39.3,28.9,49.3,37.8V275c-9.2,0.9-18.2,1.7-27,2.4l0-97
		c-4.2-3.7-15.8-13.3-25.8-20.4c-10-7.1-21.6-14.6-31.7-20.3v141.1c-9.3,0.3-18.3,0.6-27,0.7v-180C260,98.6,262.4,96.5,265,96.5z
		 M235.1,96.5c2.3,0,4.9,1.9,4.9,5v52c0,1.6-1.2,2.9-2.8,3.3l-20.2,4.4c-1.8,0.4-4-0.9-4-2.6v-18.8l0,0
		c-8.6,4.9-19.4,11.7-28.8,18.2c-9.4,6.5-20.2,15-28.7,22.5v71.1c19.5,1.5,38.6,2.6,57.4,3.4v-15.8c0-1.7,1.2-3.1,2.9-3.3l20.3-3
		c1.8-0.3,4,1.1,4,2.8v45.8c-33.4-0.4-70.6-2.5-111.5-6.5l0-109.3c12.4-11,28.8-24.3,48.7-37.4c17.5-11.6,36-22.2,55.1-31.3
		C233.1,96.6,234.1,96.5,235.1,96.5z"/>
</g>
</svg>
