<?xml version="1.0" encoding="utf-8"?>
<!-- Generator: Adobe Illustrator 28.3.0, SVG Export Plug-In . SVG Version: 6.00 Build 0)  -->
<svg version="1.1" id="Слой_1" xmlns="http://www.w3.org/2000/svg" xmlns:xlink="http://www.w3.org/1999/xlink" x="0px" y="0px"
	 viewBox="0 0 1311 500" style="enable-background:new 0 0 1311 500;" xml:space="preserve">
<style type="text/css">
	.st0{fill-rule:evenodd;clip-rule:evenodd;fill:url(#final_00000050628140001114553540000008308462810715655580_);}
	.st1{fill:url(#SVGID_1_);}
	.st2{fill:url(#SVGID_00000078043936168688866600000015102423136664062122_);}
	.st3{fill:url(#SVGID_00000084525098156271717290000005076317794106363528_);}
	.st4{fill:url(#SVGID_00000163755291041988539110000008664221527758667196_);}
	.st5{fill:url(#SVGID_00000007416294458520935160000011126900901103328137_);}
	.st6{fill:url(#SVGID_00000019677732512087681630000013127288582574283911_);}
</style>
<linearGradient id="final_00000042710993087913915430000012023033158562710918_" gradientUnits="userSpaceOnUse" x1="355.97" y1="434.1793" x2="163.9483" y2="101.5879">
	<stop  offset="0" style="stop-color:#013F61"/>
	<stop  offset="1" style="stop-color:#0C81C4"/>
</linearGradient>
<path id="final" style="fill-rule:evenodd;clip-rule:evenodd;fill:url(#final_00000042710993087913915430000012023033158562710918_);" d="
	M261.3,61.3c33.7,15.4,66.2,34.4,94.5,54.9s55.6,44.6,81.7,73.1c5.3,5.7,7.8,13.6,7,21.2c-4.1,36.6-11,71.2-22.6,106.5
	s-25,66.1-44.7,100.6c-3.9,6.9-10.7,11.7-18.5,13.3c-36.2,7.1-72.5,10.7-108.7,10.7c-36.3,0-72.6-3.5-108.8-10.7
	c-7.7-1.5-14.4-6.4-18.3-13.2c-18-31.3-33.1-64.8-44.2-98.9c-11-34.1-17.9-63.6-23.1-108c-0.9-7.8,1.7-15.7,7-21.5
	c24.8-27.1,51.9-51.4,81.3-72.7c28.3-20.6,61.6-40.1,94.8-55.2C245.9,58.1,254.1,58.1,261.3,61.3z M239.8,80.1
	c-29.9,13.6-59.8,31.1-85.3,49.7c-26.5,19.2-50.8,41.1-73.1,65.5c-4.8,5.2-7.2,12.3-6.3,19.4c4.7,40,10.9,66.6,20.8,97.3
	c9.9,30.7,23.5,60.9,39.8,89.1c3.5,6.1,9.5,10.5,16.5,11.9c32.6,6.5,65.3,9.6,97.9,9.6c32.6,0,65.2-3.2,97.8-9.6
	c7-1.4,13.1-5.7,16.7-12c17.8-31.1,29.8-58.8,40.2-90.6c10.4-31.8,16.7-62.9,20.3-95.9c0.8-6.9-1.5-13.9-6.3-19.1
	c-23.5-25.7-48-47.3-73.5-65.8s-54.7-35.6-85-49.5C253.7,77.2,246.3,77.2,239.8,80.1z M370.4,299.6l-62.9,17.8
	c-14.8,4.2-23.3,6.8-25.7,7.6c-6.8,2.4-7,7.7-3.9,11.8l48,56.9c1.6,2.3-1.6,6.7-5.3,4.2l-63.5-41.6c-2.7-1.8-4.2-2.5-7.1-2.5
	s-4.3,0.7-7.1,2.5l-63.5,41.6c-3.9,2.5-6.9-1.9-5.3-4.2l47.6-56.4c3.4-4.1,3.5-9.4-2.7-12l-0.8-0.3c-4.7-1.6-34.2-10.1-88.6-25.4
	c-4.4-1.9-3.8-6.2,1.8-6c44.4,4.7,83.9,7,118.6,7s74.2-2.3,118.6-7C374.1,293.4,374.7,297.7,370.4,299.6z M263,117.3
	c0.8,0,1.9,0.2,2.6,0.5c10.6,5,29,14.8,46.9,26.6c17.6,11.6,34,25,42.7,32.7v94.5c-7.9,0.8-15.7,1.5-23.4,2.1l0-83.9
	c-3.7-3.2-13.7-11.5-22.3-17.6c-8.6-6.2-18.7-12.6-27.4-17.6v122c-8,0.3-15.8,0.5-23.4,0.6V121.6C258.6,119.1,260.7,117.3,263,117.3
	z M237.1,117.3c2,0,4.3,1.7,4.3,4.3v45c0,1.4-1.1,2.5-2.4,2.8l-17.5,3.8c-1.6,0.3-3.4-0.8-3.4-2.2v-16.3l0,0
	c-7.5,4.2-16.8,10.1-24.9,15.8c-8.2,5.7-17.5,13-24.8,19.4v61.5c16.8,1.3,33.4,2.3,49.6,2.9v-13.6c0-1.4,1.1-2.7,2.5-2.9l17.5-2.6
	c1.6-0.2,3.5,0.9,3.5,2.5v39.6c-28.9-0.3-61.1-2.2-96.4-5.6l0-94.5c10.8-9.5,24.9-21,42.1-32.4c15.1-10,31.2-19.2,47.7-27.1
	C235.3,117.3,236.2,117.3,237.1,117.3z"/>
<g>
	<linearGradient id="SVGID_1_" gradientUnits="userSpaceOnUse" x1="596.2272" y1="328.4373" x2="513.9515" y2="185.9316">
		<stop  offset="0" style="stop-color:#013F61"/>
		<stop  offset="1" style="stop-color:#0C81C4"/>
	</linearGradient>
	<path class="st1" d="M498.9,319.8V194.6h112.3v125.2h-24.9V219.6H524v100.1H498.9z"/>
	
		<linearGradient id="SVGID_00000130609232737970573320000012505439121931900349_" gradientUnits="userSpaceOnUse" x1="723.2422" y1="323.1394" x2="647.1357" y2="191.3191">
		<stop  offset="0" style="stop-color:#013F61"/>
		<stop  offset="1" style="stop-color:#0C81C4"/>
	</linearGradient>
	<path style="fill:url(#SVGID_00000130609232737970573320000012505439121931900349_);" d="M641.5,319.8l-12.3-12.3V207.3l12.3-12.7
		h87.6l12.3,12.7v100.1l-12.3,12.3H641.5z M716.6,294.7v-75.1h-62.4v75.1H716.6z"/>
	
		<linearGradient id="SVGID_00000005958569611467767080000016766321555322584454_" gradientUnits="userSpaceOnUse" x1="832.484" y1="291.9678" x2="772.024" y2="187.248">
		<stop  offset="0" style="stop-color:#013F61"/>
		<stop  offset="1" style="stop-color:#0C81C4"/>
	</linearGradient>
	<path style="fill:url(#SVGID_00000005958569611467767080000016766321555322584454_);" d="M759.3,319.8V194.6h106.2v25h-81.2v100.1
		H759.3z"/>
	
		<linearGradient id="SVGID_00000066506204772150061250000008291232793938565511_" gradientUnits="userSpaceOnUse" x1="972.1484" y1="323.1394" x2="896.0419" y2="191.3191">
		<stop  offset="0" style="stop-color:#013F61"/>
		<stop  offset="1" style="stop-color:#0C81C4"/>
	</linearGradient>
	<path style="fill:url(#SVGID_00000066506204772150061250000008291232793938565511_);" d="M890.4,319.8L878,307.4V207.3l12.3-12.7
		H978l12.3,12.7v100.1L978,319.8H890.4z M965.5,294.7v-75.1h-62.4v75.1H965.5z"/>
	
		<linearGradient id="SVGID_00000168078292064635079820000012687772931136300951_" gradientUnits="userSpaceOnUse" x1="1106.9287" y1="355.8398" x2="1023.1115" y2="210.6642">
		<stop  offset="0" style="stop-color:#013F61"/>
		<stop  offset="1" style="stop-color:#0C81C4"/>
	</linearGradient>
	<path style="fill:url(#SVGID_00000168078292064635079820000012687772931136300951_);" d="M1001,344.8v-50.1h12.3v-62.6l37.6-37.6
		h62.4v100.1h12.7v50.1h-25v-25h-74.9v25H1001z M1088.5,294.7v-75.1h-25l-25,25v50.1H1088.5z"/>
	
		<linearGradient id="SVGID_00000008137162613521419090000012764746932402998168_" gradientUnits="userSpaceOnUse" x1="1234.0524" y1="328.4373" x2="1161.12" y2="202.1146">
		<stop  offset="0" style="stop-color:#013F61"/>
		<stop  offset="1" style="stop-color:#0C81C4"/>
	</linearGradient>
	<path style="fill:url(#SVGID_00000008137162613521419090000012764746932402998168_);" d="M1136.8,319.8v-87.4l37.4-37.7h74.9v125.2
		h-24.9v-37.4h-62.4v37.4H1136.8z M1224.2,257.4v-37.7h-37.6l-24.9,25.2v12.5H1224.2z"/>
</g>
</svg>
