<?xml version="1.0" encoding="iso-8859-1"?>
<!-- Generator: Adobe Illustrator 29.4.0, SVG Export Plug-In . SVG Version: 9.03 Build 0)  -->
<svg version="1.1" baseProfile="basic" id="Layer_1"
	 xmlns="http://www.w3.org/2000/svg" xmlns:xlink="http://www.w3.org/1999/xlink" x="0px" y="0px" viewBox="0 0 32 32"
	 xml:space="preserve">
<g>
	<linearGradient id="SVGID_1_" gradientUnits="userSpaceOnUse" x1="11.0503" y1="11.0503" x2="20.9497" y2="20.9497">
		<stop  offset="0" style="stop-color:#FFC400;stop-opacity:0.95"/>
		<stop  offset="1" style="stop-color:#FFC400;stop-opacity:0.5"/>
	</linearGradient>
	<circle style="fill:url(#SVGID_1_);" cx="16" cy="16" r="7"/>
	<g>
		
			<linearGradient id="SVGID_00000035511856165547178440000017750750102774398376_" gradientUnits="userSpaceOnUse" x1="11.0503" y1="11.0503" x2="20.9497" y2="20.9497">
			<stop  offset="0" style="stop-color:#FFFFFF;stop-opacity:0.6"/>
			<stop  offset="0.4927" style="stop-color:#FFFFFF;stop-opacity:0"/>
			<stop  offset="0.9971" style="stop-color:#FFFFFF;stop-opacity:0.3"/>
		</linearGradient>
		<path style="fill:url(#SVGID_00000035511856165547178440000017750750102774398376_);" d="M16,9.5c3.584,0,6.5,2.916,6.5,6.5
			s-2.916,6.5-6.5,6.5S9.5,19.584,9.5,16S12.416,9.5,16,9.5 M16,9c-3.866,0-7,3.134-7,7s3.134,7,7,7s7-3.134,7-7S19.866,9,16,9L16,9
			z"/>
	</g>
</g>
<g>
	
		<linearGradient id="SVGID_00000028285455513922007500000008485307790530847634_" gradientUnits="userSpaceOnUse" x1="14.4911" y1="2.9911" x2="17.5089" y2="6.0089">
		<stop  offset="0" style="stop-color:#FFC400;stop-opacity:0.95"/>
		<stop  offset="1" style="stop-color:#FFC400;stop-opacity:0.5"/>
	</linearGradient>
	<path style="fill:url(#SVGID_00000028285455513922007500000008485307790530847634_);" d="M17.25,3.25C17.25,2.56,16.69,2,16,2
		s-1.25,0.56-1.25,1.25v2.5C14.75,6.44,15.31,7,16,7s1.25-0.56,1.25-1.25V3.25z"/>
	<g>
		
			<linearGradient id="SVGID_00000050646119781949100850000008340804346554632864_" gradientUnits="userSpaceOnUse" x1="14.4911" y1="2.9911" x2="17.5089" y2="6.0089">
			<stop  offset="0" style="stop-color:#FFFFFF;stop-opacity:0.6"/>
			<stop  offset="0.4927" style="stop-color:#FFFFFF;stop-opacity:0"/>
			<stop  offset="0.9971" style="stop-color:#FFFFFF;stop-opacity:0.3"/>
		</linearGradient>
		<path style="fill:url(#SVGID_00000050646119781949100850000008340804346554632864_);" d="M16,2.5c0.414,0,0.75,0.336,0.75,0.75
			v2.5c0,0.414-0.336,0.75-0.75,0.75s-0.75-0.336-0.75-0.75v-2.5C15.25,2.836,15.586,2.5,16,2.5 M16,2c-0.69,0-1.25,0.56-1.25,1.25
			v2.5C14.75,6.44,15.31,7,16,7s1.25-0.56,1.25-1.25v-2.5C17.25,2.56,16.69,2,16,2L16,2z"/>
	</g>
</g>
<g>
	
		<linearGradient id="SVGID_00000018948761490381063630000017055398624377306535_" gradientUnits="userSpaceOnUse" x1="14.4911" y1="25.9911" x2="17.5089" y2="29.0089">
		<stop  offset="0" style="stop-color:#FFC400;stop-opacity:0.95"/>
		<stop  offset="1" style="stop-color:#FFC400;stop-opacity:0.5"/>
	</linearGradient>
	<path style="fill:url(#SVGID_00000018948761490381063630000017055398624377306535_);" d="M17.25,26.25c0-0.69-0.56-1.25-1.25-1.25
		s-1.25,0.56-1.25,1.25v2.5c0,0.69,0.56,1.25,1.25,1.25s1.25-0.56,1.25-1.25V26.25z"/>
	<g>
		
			<linearGradient id="SVGID_00000039818421168574835590000000927202334330406818_" gradientUnits="userSpaceOnUse" x1="14.4911" y1="25.9911" x2="17.5089" y2="29.0089">
			<stop  offset="0" style="stop-color:#FFFFFF;stop-opacity:0.6"/>
			<stop  offset="0.4927" style="stop-color:#FFFFFF;stop-opacity:0"/>
			<stop  offset="0.9971" style="stop-color:#FFFFFF;stop-opacity:0.3"/>
		</linearGradient>
		<path style="fill:url(#SVGID_00000039818421168574835590000000927202334330406818_);" d="M16,25.5c0.414,0,0.75,0.336,0.75,0.75
			v2.5c0,0.414-0.336,0.75-0.75,0.75s-0.75-0.336-0.75-0.75v-2.5C15.25,25.836,15.586,25.5,16,25.5 M16,25
			c-0.69,0-1.25,0.56-1.25,1.25v2.5c0,0.69,0.56,1.25,1.25,1.25s1.25-0.56,1.25-1.25v-2.5C17.25,25.56,16.69,25,16,25L16,25z"/>
	</g>
</g>
<g>
	
		<linearGradient id="SVGID_00000176026477207689127670000003763089478291582597_" gradientUnits="userSpaceOnUse" x1="-141.5089" y1="158.9911" x2="-138.4911" y2="162.0089" gradientTransform="matrix(0 1 -1 0 188 156)">
		<stop  offset="0" style="stop-color:#FFC400;stop-opacity:0.95"/>
		<stop  offset="1" style="stop-color:#FFC400;stop-opacity:0.5"/>
	</linearGradient>
	<path style="fill:url(#SVGID_00000176026477207689127670000003763089478291582597_);" d="M28.75,17.25c0.69,0,1.25-0.56,1.25-1.25
		s-0.56-1.25-1.25-1.25h-2.5C25.56,14.75,25,15.31,25,16s0.56,1.25,1.25,1.25H28.75z"/>
	<g>
		
			<linearGradient id="SVGID_00000059299347063210291350000014832818760401677206_" gradientUnits="userSpaceOnUse" x1="29.0089" y1="14.4911" x2="25.9911" y2="17.5089">
			<stop  offset="0" style="stop-color:#FFFFFF;stop-opacity:0.6"/>
			<stop  offset="0.4927" style="stop-color:#FFFFFF;stop-opacity:0"/>
			<stop  offset="0.9971" style="stop-color:#FFFFFF;stop-opacity:0.3"/>
		</linearGradient>
		<path style="fill:url(#SVGID_00000059299347063210291350000014832818760401677206_);" d="M28.75,15.25
			c0.414,0,0.75,0.336,0.75,0.75s-0.336,0.75-0.75,0.75h-2.5c-0.414,0-0.75-0.336-0.75-0.75s0.336-0.75,0.75-0.75H28.75
			 M28.75,14.75h-2.5C25.56,14.75,25,15.31,25,16s0.56,1.25,1.25,1.25h2.5c0.69,0,1.25-0.56,1.25-1.25S29.44,14.75,28.75,14.75
			L28.75,14.75z"/>
	</g>
</g>
<g>
	
		<linearGradient id="SVGID_00000093150085183702165610000016340148903113195967_" gradientUnits="userSpaceOnUse" x1="-141.5089" y1="181.9911" x2="-138.4911" y2="185.0089" gradientTransform="matrix(0 1 -1 0 188 156)">
		<stop  offset="0" style="stop-color:#FFC400;stop-opacity:0.95"/>
		<stop  offset="1" style="stop-color:#FFC400;stop-opacity:0.5"/>
	</linearGradient>
	<path style="fill:url(#SVGID_00000093150085183702165610000016340148903113195967_);" d="M5.75,17.25C6.44,17.25,7,16.69,7,16
		s-0.56-1.25-1.25-1.25h-2.5C2.56,14.75,2,15.31,2,16s0.56,1.25,1.25,1.25H5.75z"/>
	<g>
		
			<linearGradient id="SVGID_00000177451236974474683800000013420106800582499741_" gradientUnits="userSpaceOnUse" x1="6.0089" y1="14.4911" x2="2.9911" y2="17.5089">
			<stop  offset="0" style="stop-color:#FFFFFF;stop-opacity:0.6"/>
			<stop  offset="0.4927" style="stop-color:#FFFFFF;stop-opacity:0"/>
			<stop  offset="0.9971" style="stop-color:#FFFFFF;stop-opacity:0.3"/>
		</linearGradient>
		<path style="fill:url(#SVGID_00000177451236974474683800000013420106800582499741_);" d="M5.75,15.25
			c0.414,0,0.75,0.336,0.75,0.75s-0.336,0.75-0.75,0.75h-2.5c-0.414,0-0.75-0.336-0.75-0.75s0.336-0.75,0.75-0.75H5.75 M5.75,14.75
			h-2.5C2.56,14.75,2,15.31,2,16s0.56,1.25,1.25,1.25h2.5C6.44,17.25,7,16.69,7,16S6.44,14.75,5.75,14.75L5.75,14.75z"/>
	</g>
</g>
<g>
	
		<linearGradient id="SVGID_00000142865094909294693390000012292078797273868724_" gradientUnits="userSpaceOnUse" x1="-95.8175" y1="48.6825" x2="-92.7998" y2="51.7002" gradientTransform="matrix(0.7071 0.7071 -0.7071 0.7071 126.3087 39.0639)">
		<stop  offset="0" style="stop-color:#FFC400;stop-opacity:0.95"/>
		<stop  offset="1" style="stop-color:#FFC400;stop-opacity:0.5"/>
	</linearGradient>
	<path style="fill:url(#SVGID_00000142865094909294693390000012292078797273868724_);" d="M25.899,7.868
		c0.488-0.488,0.488-1.28,0-1.768s-1.28-0.488-1.768,0l-1.768,1.768c-0.488,0.488-0.488,1.28,0,1.768s1.28,0.488,1.768,0
		L25.899,7.868z"/>
	<g>
		
			<linearGradient id="SVGID_00000033347096255092913990000001659081102913092761_" gradientUnits="userSpaceOnUse" x1="24.1317" y1="5.7344" x2="24.1317" y2="10.0021">
			<stop  offset="0" style="stop-color:#FFFFFF;stop-opacity:0.6"/>
			<stop  offset="0.4927" style="stop-color:#FFFFFF;stop-opacity:0"/>
			<stop  offset="0.9971" style="stop-color:#FFFFFF;stop-opacity:0.3"/>
		</linearGradient>
		<path style="fill:url(#SVGID_00000033347096255092913990000001659081102913092761_);" d="M25.016,6.234
			c0.2,0,0.389,0.078,0.53,0.22c0.292,0.292,0.292,0.768,0,1.061l-1.768,1.768c-0.142,0.142-0.33,0.22-0.53,0.22
			s-0.389-0.078-0.53-0.22c-0.292-0.292-0.292-0.768,0-1.061l1.768-1.768C24.627,6.312,24.815,6.234,25.016,6.234 M25.016,5.734
			c-0.32,0-0.64,0.122-0.884,0.366l-1.768,1.768c-0.488,0.488-0.488,1.28,0,1.768c0.244,0.244,0.564,0.366,0.884,0.366
			c0.32,0,0.64-0.122,0.884-0.366L25.9,7.868c0.488-0.488,0.488-1.28,0-1.768C25.655,5.856,25.336,5.734,25.016,5.734L25.016,5.734z
			"/>
	</g>
</g>
<g>
	
		<linearGradient id="SVGID_00000126320923334854637210000009330638187107691961_" gradientUnits="userSpaceOnUse" x1="-95.8175" y1="71.6825" x2="-92.7998" y2="74.7002" gradientTransform="matrix(0.7071 0.7071 -0.7071 0.7071 126.3087 39.0639)">
		<stop  offset="0" style="stop-color:#FFC400;stop-opacity:0.95"/>
		<stop  offset="1" style="stop-color:#FFC400;stop-opacity:0.5"/>
	</linearGradient>
	<path style="fill:url(#SVGID_00000126320923334854637210000009330638187107691961_);" d="M9.636,24.132
		c0.488-0.488,0.488-1.28,0-1.768s-1.28-0.488-1.768,0l-1.768,1.768c-0.488,0.488-0.488,1.28,0,1.768s1.28,0.488,1.768,0
		L9.636,24.132z"/>
	<g>
		
			<linearGradient id="SVGID_00000049917767181706567580000016931157993924297901_" gradientUnits="userSpaceOnUse" x1="7.8683" y1="21.9979" x2="7.8683" y2="26.2656">
			<stop  offset="0" style="stop-color:#FFFFFF;stop-opacity:0.6"/>
			<stop  offset="0.4927" style="stop-color:#FFFFFF;stop-opacity:0"/>
			<stop  offset="0.9971" style="stop-color:#FFFFFF;stop-opacity:0.3"/>
		</linearGradient>
		<path style="fill:url(#SVGID_00000049917767181706567580000016931157993924297901_);" d="M8.752,22.498
			c0.2,0,0.389,0.078,0.53,0.22c0.292,0.292,0.292,0.768,0,1.061l-1.768,1.768c-0.142,0.142-0.33,0.22-0.53,0.22
			c-0.2,0-0.389-0.078-0.53-0.22c-0.292-0.292-0.292-0.768,0-1.061l1.768-1.768C8.363,22.576,8.552,22.498,8.752,22.498
			 M8.752,21.998c-0.32,0-0.64,0.122-0.884,0.366L6.1,24.132c-0.488,0.488-0.488,1.28,0,1.768c0.244,0.244,0.564,0.366,0.884,0.366
			s0.64-0.122,0.884-0.366l1.768-1.768c0.488-0.488,0.488-1.28,0-1.768C9.392,22.12,9.072,21.998,8.752,21.998L8.752,21.998z"/>
	</g>
</g>
<g>
	
		<linearGradient id="SVGID_00000048474766623820811030000013123832577622194080_" gradientUnits="userSpaceOnUse" x1="-95.8175" y1="269.2998" x2="-92.7998" y2="272.3175" gradientTransform="matrix(-0.7071 0.7071 -0.7071 -0.7071 148.9361 282.3087)">
		<stop  offset="0" style="stop-color:#FFC400;stop-opacity:0.95"/>
		<stop  offset="1" style="stop-color:#FFC400;stop-opacity:0.5"/>
	</linearGradient>
	<path style="fill:url(#SVGID_00000048474766623820811030000013123832577622194080_);" d="M24.132,25.899
		c0.488,0.488,1.28,0.488,1.768,0s0.488-1.28,0-1.768l-1.768-1.768c-0.488-0.488-1.28-0.488-1.768,0s-0.488,1.28,0,1.768
		L24.132,25.899z"/>
	<g>
		
			<linearGradient id="SVGID_00000140708397901004043860000014031069223152618662_" gradientUnits="userSpaceOnUse" x1="26.2656" y1="24.1317" x2="21.9979" y2="24.1317">
			<stop  offset="0" style="stop-color:#FFFFFF;stop-opacity:0.6"/>
			<stop  offset="0.4927" style="stop-color:#FFFFFF;stop-opacity:0"/>
			<stop  offset="0.9971" style="stop-color:#FFFFFF;stop-opacity:0.3"/>
		</linearGradient>
		<path style="fill:url(#SVGID_00000140708397901004043860000014031069223152618662_);" d="M23.248,22.498
			c0.2,0,0.389,0.078,0.53,0.22l1.768,1.768c0.292,0.292,0.292,0.768,0,1.061c-0.142,0.142-0.33,0.22-0.53,0.22
			c-0.2,0-0.389-0.078-0.53-0.22l-1.768-1.768c-0.292-0.292-0.292-0.768,0-1.061C22.859,22.576,23.047,22.498,23.248,22.498
			 M23.248,21.998c-0.32,0-0.64,0.122-0.884,0.366c-0.488,0.488-0.488,1.28,0,1.768l1.768,1.768
			c0.244,0.244,0.564,0.366,0.884,0.366s0.64-0.122,0.884-0.366c0.488-0.488,0.488-1.28,0-1.768l-1.768-1.768
			C23.888,22.12,23.568,21.998,23.248,21.998L23.248,21.998z"/>
	</g>
</g>
<g>
	
		<linearGradient id="SVGID_00000085953138401199561590000011901601995596521640_" gradientUnits="userSpaceOnUse" x1="-95.8175" y1="292.2998" x2="-92.7998" y2="295.3175" gradientTransform="matrix(-0.7071 0.7071 -0.7071 -0.7071 148.9361 282.3087)">
		<stop  offset="0" style="stop-color:#FFC400;stop-opacity:0.95"/>
		<stop  offset="1" style="stop-color:#FFC400;stop-opacity:0.5"/>
	</linearGradient>
	<path style="fill:url(#SVGID_00000085953138401199561590000011901601995596521640_);" d="M7.868,9.636
		c0.488,0.488,1.28,0.488,1.768,0s0.488-1.28,0-1.768L7.868,6.101c-0.488-0.488-1.28-0.488-1.768,0s-0.488,1.28,0,1.768L7.868,9.636
		z"/>
	<g>
		
			<linearGradient id="SVGID_00000060743950737608066930000005369408095891119006_" gradientUnits="userSpaceOnUse" x1="10.0021" y1="7.8683" x2="5.7344" y2="7.8683">
			<stop  offset="0" style="stop-color:#FFFFFF;stop-opacity:0.6"/>
			<stop  offset="0.4927" style="stop-color:#FFFFFF;stop-opacity:0"/>
			<stop  offset="0.9971" style="stop-color:#FFFFFF;stop-opacity:0.3"/>
		</linearGradient>
		<path style="fill:url(#SVGID_00000060743950737608066930000005369408095891119006_);" d="M6.984,6.234
			c0.2,0,0.389,0.078,0.53,0.22l1.768,1.768c0.292,0.292,0.292,0.768,0,1.061c-0.142,0.142-0.33,0.22-0.53,0.22
			s-0.389-0.078-0.53-0.22L6.454,7.515c-0.292-0.292-0.292-0.768,0-1.061C6.596,6.312,6.784,6.234,6.984,6.234 M6.984,5.734
			c-0.32,0-0.64,0.122-0.884,0.366c-0.488,0.488-0.488,1.28,0,1.768l1.768,1.768c0.244,0.244,0.564,0.366,0.884,0.366
			c0.32,0,0.64-0.122,0.884-0.366c0.488-0.488,0.488-1.28,0-1.768L7.868,6.1C7.624,5.856,7.304,5.734,6.984,5.734L6.984,5.734z"/>
	</g>
</g>
</svg>