<?xml version="1.0" encoding="iso-8859-1"?>
<!-- Generator: Adobe Illustrator 25.2.3, SVG Export Plug-In . SVG Version: 6.00 Build 0)  -->
<svg version="1.1" baseProfile="basic" id="Layer_2"
	 xmlns="http://www.w3.org/2000/svg" xmlns:xlink="http://www.w3.org/1999/xlink" x="0px" y="0px" viewBox="0 0 32 32"
	 xml:space="preserve">
<linearGradient id="SVGID_1_" gradientUnits="userSpaceOnUse" x1="6.3431" y1="9.636" x2="24.8033" y2="28.0962">
	<stop  offset="0" style="stop-color:#00E9FF;stop-opacity:0.95"/>
	<stop  offset="1" style="stop-color:#00E9FF;stop-opacity:0.5"/>
</linearGradient>
<path style="fill:url(#SVGID_1_);" d="M24,12c-0.384,0-0.758,0.039-1.125,0.099C22.205,8.073,18.716,5,14.5,5
	C9.806,5,6,8.806,6,13.5c0,0.198,0.016,0.391,0.03,0.585C3.178,14.55,1,17.017,1,20c0,3.314,2.686,6,6,6h17c3.866,0,7-3.134,7-7
	C31,15.134,27.866,12,24,12z"/>
<linearGradient id="SVGID_2_" gradientUnits="userSpaceOnUse" x1="6.3431" y1="9.636" x2="24.8033" y2="28.0962">
	<stop  offset="0" style="stop-color:#FFFFFF;stop-opacity:0.6"/>
	<stop  offset="0.4927" style="stop-color:#FFFFFF;stop-opacity:0"/>
	<stop  offset="0.9971" style="stop-color:#FFFFFF;stop-opacity:0.3"/>
</linearGradient>
<path style="fill:url(#SVGID_2_);" d="M14.5,5.5c3.923,0,7.238,2.81,7.882,6.681l0.082,0.491l0.491-0.08
	C23.338,12.53,23.68,12.5,24,12.5c3.584,0,6.5,2.916,6.5,6.5s-2.916,6.5-6.5,6.5H7c-3.033,0-5.5-2.467-5.5-5.5
	c0-2.706,1.939-4.986,4.61-5.421l0.449-0.073l-0.031-0.454l-0.007-0.093C6.511,13.806,6.5,13.655,6.5,13.5
	C6.5,9.089,10.089,5.5,14.5,5.5 M14.5,5C9.806,5,6,8.806,6,13.5c0,0.198,0.016,0.391,0.03,0.585C3.178,14.55,1,17.017,1,20
	c0,3.314,2.686,6,6,6h17c3.866,0,7-3.134,7-7c0-3.866-3.134-7-7-7c-0.384,0-0.758,0.039-1.125,0.099C22.205,8.073,18.716,5,14.5,5
	L14.5,5z"/>
</svg>