<svg xmlns="http://www.w3.org/2000/svg" xmlns:xlink="http://www.w3.org/1999/xlink" viewBox="0,0,256,256" width="128px" height="128px" fill-rule="nonzero"><defs><linearGradient x1="6.343" y1="9.636" x2="24.803" y2="28.096" gradientUnits="userSpaceOnUse" id="color-1"><stop offset="0" stop-color="#7259ff" stop-opacity="0.94902"></stop><stop offset="1" stop-color="#7259ff" stop-opacity="0.50196"></stop></linearGradient><linearGradient x1="6.343" y1="9.636" x2="24.803" y2="28.096" gradientUnits="userSpaceOnUse" id="color-2"><stop offset="0" stop-color="#ffffff" stop-opacity="0.6"></stop><stop offset="0.493" stop-color="#ffffff" stop-opacity="0"></stop><stop offset="0.997" stop-color="#ffffff" stop-opacity="0.3"></stop></linearGradient></defs><g fill="none" fill-rule="nonzero" stroke="none" stroke-width="1" stroke-linecap="butt" stroke-linejoin="miter" stroke-miterlimit="10" stroke-dasharray="" stroke-dashoffset="0" font-family="none" font-weight="none" font-size="none" text-anchor="none" style="mix-blend-mode: normal"><g transform="scale(8,8)"><path d="M24,12c-0.384,0 -0.758,0.039 -1.125,0.099c-0.67,-4.026 -4.159,-7.099 -8.375,-7.099c-4.694,0 -8.5,3.806 -8.5,8.5c0,0.198 0.016,0.391 0.03,0.585c-2.852,0.465 -5.03,2.932 -5.03,5.915c0,3.314 2.686,6 6,6h17c3.866,0 7,-3.134 7,-7c0,-3.866 -3.134,-7 -7,-7z" fill="url(#color-1)"></path><path d="M14.5,5.5c3.923,0 7.238,2.81 7.882,6.681l0.082,0.491l0.491,-0.08c0.383,-0.062 0.725,-0.092 1.045,-0.092c3.584,0 6.5,2.916 6.5,6.5c0,3.584 -2.916,6.5 -6.5,6.5h-17c-3.033,0 -5.5,-2.467 -5.5,-5.5c0,-2.706 1.939,-4.986 4.61,-5.421l0.449,-0.073l-0.031,-0.454l-0.007,-0.093c-0.01,-0.153 -0.021,-0.304 -0.021,-0.459c0,-4.411 3.589,-8 8,-8M14.5,5c-4.694,0 -8.5,3.806 -8.5,8.5c0,0.198 0.016,0.391 0.03,0.585c-2.852,0.465 -5.03,2.932 -5.03,5.915c0,3.314 2.686,6 6,6h17c3.866,0 7,-3.134 7,-7c0,-3.866 -3.134,-7 -7,-7c-0.384,0 -0.758,0.039 -1.125,0.099c-0.67,-4.026 -4.159,-7.099 -8.375,-7.099z" fill="url(#color-2)"></path></g></g></svg>