<?xml version="1.0" encoding="iso-8859-1"?>
<!-- Generator: Adobe Illustrator 25.2.3, SVG Export Plug-In . SVG Version: 6.00 Build 0)  -->
<svg version="1.1" baseProfile="basic" id="Layer_2"
	 xmlns="http://www.w3.org/2000/svg" xmlns:xlink="http://www.w3.org/1999/xlink" x="0px" y="0px" viewBox="0 0 32 32"
	 xml:space="preserve">
<linearGradient id="SVGID_1_" gradientUnits="userSpaceOnUse" x1="7.8735" y1="5.8128" x2="23.6244" y2="21.5637">
	<stop  offset="0" style="stop-color:#00E9FF;stop-opacity:0.95"/>
	<stop  offset="1" style="stop-color:#00E9FF;stop-opacity:0.5"/>
</linearGradient>
<path style="fill:url(#SVGID_1_);" d="M29,13.5C29,9.91,26.09,7,22.5,7c-0.029,0-0.057,0.004-0.085,0.004
	C21.228,4.071,18.358,2,15,2c-4.418,0-8,3.582-8,8c0,0.034,0.005,0.067,0.005,0.1C4.72,10.562,3,12.579,3,15c0,2.761,2.239,5,5,5h15
	v-0.025C26.355,19.719,29,16.921,29,13.5z"/>
<linearGradient id="SVGID_2_" gradientUnits="userSpaceOnUse" x1="7.8735" y1="5.8128" x2="23.6244" y2="21.5637">
	<stop  offset="0" style="stop-color:#FFFFFF;stop-opacity:0.6"/>
	<stop  offset="0.4927" style="stop-color:#FFFFFF;stop-opacity:0"/>
	<stop  offset="0.9971" style="stop-color:#FFFFFF;stop-opacity:0.3"/>
</linearGradient>
<path style="fill:url(#SVGID_2_);" d="M15,2.5c3.07,0,5.798,1.842,6.951,4.692l0.128,0.317l0.342-0.004L22.5,7.5
	c3.308,0,6,2.692,6,6c0,3.114-2.433,5.739-5.538,5.976L22.78,19.5H8c-2.481,0-4.5-2.019-4.5-4.5c0-2.133,1.516-3.988,3.604-4.41
	l0.406-0.082l-0.005-0.414l-0.004-0.079L7.5,10C7.5,5.865,10.865,2.5,15,2.5 M15,2c-4.418,0-8,3.582-8,8
	c0,0.034,0.005,0.067,0.005,0.1C4.72,10.562,3,12.579,3,15c0,2.761,2.239,5,5,5h15v-0.025c3.355-0.256,6-3.054,6-6.475
	C29,9.91,26.09,7,22.5,7c-0.029,0-0.057,0.004-0.085,0.004C21.228,4.071,18.358,2,15,2L15,2z"/>
<linearGradient id="SVGID_3_" gradientUnits="userSpaceOnUse" x1="5.5849" y1="23.0847" x2="10.415" y2="27.9148">
	<stop  offset="0" style="stop-color:#00E9FF;stop-opacity:0.95"/>
	<stop  offset="1" style="stop-color:#00E9FF;stop-opacity:0.5"/>
</linearGradient>
<path style="fill:url(#SVGID_3_);" d="M11.031,23.75c-0.276-0.48-0.89-0.642-1.366-0.366L9,23.768V23c0-0.553-0.447-1-1-1
	s-1,0.447-1,1v0.768l-0.665-0.384c-0.478-0.275-1.09-0.114-1.366,0.366c-0.276,0.479-0.112,1.09,0.366,1.366L6,25.5l-0.665,0.384
	c-0.479,0.276-0.643,0.888-0.366,1.366c0.186,0.321,0.521,0.5,0.867,0.5c0.17,0,0.342-0.043,0.499-0.134L7,27.232V28
	c0,0.553,0.447,1,1,1s1-0.447,1-1v-0.768l0.665,0.384c0.157,0.091,0.329,0.134,0.499,0.134c0.346,0,0.682-0.179,0.867-0.5
	c0.276-0.479,0.112-1.09-0.366-1.366L10,25.5l0.665-0.384C11.144,24.84,11.308,24.229,11.031,23.75z"/>
<linearGradient id="SVGID_4_" gradientUnits="userSpaceOnUse" x1="5.5849" y1="23.0847" x2="10.415" y2="27.9148">
	<stop  offset="0" style="stop-color:#FFFFFF;stop-opacity:0.6"/>
	<stop  offset="0.4927" style="stop-color:#FFFFFF;stop-opacity:0"/>
	<stop  offset="0.9971" style="stop-color:#FFFFFF;stop-opacity:0.3"/>
</linearGradient>
<path style="fill:url(#SVGID_4_);" d="M8,22.5c0.276,0,0.5,0.224,0.5,0.5v0.768v0.866l0.75-0.433l0.665-0.384
	c0.076-0.044,0.162-0.067,0.249-0.067c0.179,0,0.345,0.096,0.434,0.251c0.138,0.239,0.056,0.545-0.183,0.683L9.75,25.067L9,25.5
	l0.75,0.433l0.665,0.384c0.239,0.138,0.321,0.444,0.183,0.683c-0.09,0.157-0.253,0.25-0.434,0.25c-0.089,0-0.172-0.022-0.249-0.067
	L9.25,26.799L8.5,26.366v0.866V28c0,0.276-0.224,0.5-0.5,0.5S7.5,28.276,7.5,28v-0.768v-0.866l-0.75,0.433l-0.665,0.384
	c-0.077,0.044-0.16,0.067-0.249,0.067c-0.181,0-0.344-0.093-0.434-0.25c-0.138-0.239-0.056-0.545,0.183-0.683l0.665-0.384L7,25.5
	l-0.75-0.433l-0.665-0.384c-0.239-0.138-0.321-0.444-0.183-0.684c0.09-0.156,0.252-0.25,0.433-0.25c0.087,0,0.174,0.023,0.25,0.067
	l0.665,0.384l0.75,0.433v-0.866V23C7.5,22.724,7.724,22.5,8,22.5 M8,22c-0.553,0-1,0.447-1,1v0.768l-0.665-0.384
	c-0.158-0.091-0.33-0.134-0.5-0.134c-0.345,0-0.681,0.179-0.866,0.5c-0.276,0.479-0.112,1.09,0.366,1.366L6,25.5l-0.665,0.384
	c-0.479,0.276-0.643,0.888-0.366,1.366c0.186,0.321,0.521,0.5,0.867,0.5c0.17,0,0.342-0.043,0.499-0.134L7,27.232V28
	c0,0.553,0.447,1,1,1s1-0.447,1-1v-0.768l0.665,0.384c0.157,0.091,0.329,0.134,0.499,0.134c0.346,0,0.682-0.179,0.867-0.5
	c0.276-0.479,0.112-1.09-0.366-1.366L10,25.5l0.665-0.384c0.479-0.276,0.643-0.888,0.366-1.366c-0.185-0.322-0.522-0.5-0.867-0.5
	c-0.17,0-0.342,0.043-0.5,0.134L9,23.768V23C9,22.447,8.553,22,8,22L8,22z"/>
<linearGradient id="SVGID_5_" gradientUnits="userSpaceOnUse" x1="13.5848" y1="23.0848" x2="18.4149" y2="27.9149">
	<stop  offset="0" style="stop-color:#00E9FF;stop-opacity:0.95"/>
	<stop  offset="1" style="stop-color:#00E9FF;stop-opacity:0.5"/>
</linearGradient>
<path style="fill:url(#SVGID_5_);" d="M19.031,23.75c-0.277-0.48-0.891-0.642-1.366-0.366L17,23.768V23c0-0.553-0.447-1-1-1
	s-1,0.447-1,1v0.768l-0.665-0.384c-0.478-0.275-1.09-0.114-1.366,0.366c-0.276,0.479-0.112,1.09,0.366,1.366L14,25.5l-0.665,0.384
	c-0.479,0.276-0.643,0.888-0.366,1.366c0.186,0.321,0.521,0.5,0.867,0.5c0.17,0,0.342-0.043,0.499-0.134L15,27.232V28
	c0,0.553,0.447,1,1,1s1-0.447,1-1v-0.768l0.665,0.384c0.157,0.091,0.329,0.134,0.499,0.134c0.346,0,0.682-0.179,0.867-0.5
	c0.276-0.479,0.112-1.09-0.366-1.366L18,25.5l0.665-0.384C19.144,24.84,19.308,24.229,19.031,23.75z"/>
<linearGradient id="SVGID_6_" gradientUnits="userSpaceOnUse" x1="13.5848" y1="23.0848" x2="18.4149" y2="27.9149">
	<stop  offset="0" style="stop-color:#FFFFFF;stop-opacity:0.6"/>
	<stop  offset="0.4927" style="stop-color:#FFFFFF;stop-opacity:0"/>
	<stop  offset="0.9971" style="stop-color:#FFFFFF;stop-opacity:0.3"/>
</linearGradient>
<path style="fill:url(#SVGID_6_);" d="M16,22.5c0.276,0,0.5,0.224,0.5,0.5v0.768v0.866l0.75-0.433l0.666-0.384
	c0.076-0.044,0.161-0.067,0.248-0.067c0.179,0,0.345,0.096,0.434,0.251c0.138,0.239,0.056,0.545-0.183,0.683l-0.665,0.384L17,25.5
	l0.75,0.433l0.665,0.384c0.239,0.138,0.321,0.444,0.183,0.683c-0.09,0.157-0.253,0.25-0.434,0.25c-0.089,0-0.172-0.022-0.249-0.067
	l-0.665-0.384l-0.75-0.433v0.866V28c0,0.276-0.224,0.5-0.5,0.5s-0.5-0.224-0.5-0.5v-0.768v-0.866l-0.75,0.433l-0.665,0.384
	c-0.077,0.044-0.16,0.067-0.249,0.067c-0.181,0-0.344-0.093-0.434-0.25c-0.138-0.239-0.056-0.545,0.183-0.683l0.665-0.384L15,25.5
	l-0.75-0.433l-0.665-0.384c-0.239-0.138-0.321-0.444-0.183-0.684c0.09-0.156,0.252-0.25,0.433-0.25c0.087,0,0.174,0.023,0.25,0.067
	l0.665,0.384l0.75,0.433v-0.866V23C15.5,22.724,15.724,22.5,16,22.5 M16,22c-0.553,0-1,0.447-1,1v0.768l-0.665-0.384
	c-0.158-0.091-0.33-0.134-0.5-0.134c-0.345,0-0.681,0.179-0.866,0.5c-0.276,0.479-0.112,1.09,0.366,1.366L14,25.5l-0.665,0.384
	c-0.479,0.276-0.643,0.888-0.366,1.366c0.186,0.321,0.521,0.5,0.867,0.5c0.17,0,0.342-0.043,0.499-0.134L15,27.232V28
	c0,0.553,0.447,1,1,1s1-0.447,1-1v-0.768l0.665,0.384c0.157,0.091,0.329,0.134,0.499,0.134c0.346,0,0.682-0.179,0.867-0.5
	c0.276-0.479,0.112-1.09-0.366-1.366L18,25.5l0.665-0.384c0.479-0.276,0.643-0.888,0.366-1.366c-0.186-0.322-0.522-0.5-0.867-0.5
	c-0.17,0-0.342,0.043-0.499,0.134L17,23.768V23C17,22.447,16.553,22,16,22L16,22z"/>
<linearGradient id="SVGID_7_" gradientUnits="userSpaceOnUse" x1="21.5849" y1="23.0848" x2="26.4149" y2="27.9149">
	<stop  offset="0" style="stop-color:#00E9FF;stop-opacity:0.95"/>
	<stop  offset="1" style="stop-color:#00E9FF;stop-opacity:0.5"/>
</linearGradient>
<path style="fill:url(#SVGID_7_);" d="M26.665,25.884L26,25.5l0.665-0.384c0.479-0.276,0.643-0.888,0.366-1.366
	c-0.277-0.48-0.89-0.642-1.366-0.366L25,23.768V23c0-0.553-0.447-1-1-1s-1,0.447-1,1v0.768l-0.665-0.384
	c-0.478-0.275-1.09-0.114-1.366,0.366c-0.276,0.479-0.112,1.09,0.366,1.366L22,25.5l-0.665,0.384
	c-0.479,0.276-0.643,0.888-0.366,1.366c0.186,0.321,0.521,0.5,0.867,0.5c0.17,0,0.342-0.043,0.499-0.134L23,27.232V28
	c0,0.553,0.447,1,1,1s1-0.447,1-1v-0.768l0.665,0.384c0.157,0.091,0.329,0.134,0.499,0.134c0.346,0,0.682-0.179,0.867-0.5
	C27.308,26.771,27.144,26.16,26.665,25.884z"/>
<linearGradient id="SVGID_8_" gradientUnits="userSpaceOnUse" x1="21.5849" y1="23.0848" x2="26.4149" y2="27.9149">
	<stop  offset="0" style="stop-color:#FFFFFF;stop-opacity:0.6"/>
	<stop  offset="0.4927" style="stop-color:#FFFFFF;stop-opacity:0"/>
	<stop  offset="0.9971" style="stop-color:#FFFFFF;stop-opacity:0.3"/>
</linearGradient>
<path style="fill:url(#SVGID_8_);" d="M24,22.5c0.276,0,0.5,0.224,0.5,0.5v0.768v0.866l0.75-0.433l0.665-0.384
	c0.076-0.044,0.162-0.067,0.249-0.067c0.181,0,0.343,0.094,0.434,0.251c0.138,0.239,0.056,0.545-0.183,0.683l-0.665,0.384L25,25.5
	l0.75,0.433l0.665,0.384c0.239,0.138,0.321,0.444,0.183,0.683c-0.09,0.157-0.253,0.25-0.434,0.25c-0.089,0-0.172-0.022-0.249-0.067
	l-0.665-0.384l-0.75-0.433v0.866V28c0,0.276-0.224,0.5-0.5,0.5s-0.5-0.224-0.5-0.5v-0.768v-0.866l-0.75,0.433l-0.665,0.384
	c-0.077,0.044-0.16,0.067-0.249,0.067c-0.181,0-0.344-0.093-0.434-0.25c-0.138-0.239-0.056-0.545,0.183-0.683l0.665-0.384L23,25.5
	l-0.75-0.433l-0.665-0.384c-0.239-0.138-0.321-0.444-0.183-0.684c0.09-0.156,0.252-0.25,0.433-0.25c0.087,0,0.174,0.023,0.25,0.067
	l0.665,0.384l0.75,0.433v-0.866V23C23.5,22.724,23.724,22.5,24,22.5 M24,22c-0.553,0-1,0.447-1,1v0.768l-0.665-0.384
	c-0.158-0.091-0.33-0.134-0.5-0.134c-0.345,0-0.681,0.179-0.866,0.5c-0.276,0.479-0.112,1.09,0.366,1.366L22,25.5l-0.665,0.384
	c-0.479,0.276-0.643,0.888-0.366,1.366c0.186,0.321,0.521,0.5,0.867,0.5c0.17,0,0.342-0.043,0.499-0.134L23,27.232V28
	c0,0.553,0.447,1,1,1s1-0.447,1-1v-0.768l0.665,0.384c0.157,0.091,0.329,0.134,0.499,0.134c0.346,0,0.682-0.179,0.867-0.5
	c0.276-0.479,0.112-1.09-0.366-1.366L26,25.5l0.665-0.384c0.479-0.276,0.643-0.888,0.366-1.366c-0.186-0.322-0.522-0.5-0.867-0.5
	c-0.17,0-0.342,0.043-0.499,0.134L25,23.768V23C25,22.447,24.553,22,24,22L24,22z"/>
</svg>