<?xml version="1.0" encoding="iso-8859-1"?>
<!-- Generator: Adobe Illustrator 25.2.3, SVG Export Plug-In . SVG Version: 6.00 Build 0)  -->
<svg version="1.1" baseProfile="basic" id="Layer_2"
	 xmlns="http://www.w3.org/2000/svg" xmlns:xlink="http://www.w3.org/1999/xlink" x="0px" y="0px" viewBox="0 0 32 32"
	 xml:space="preserve">
<linearGradient id="SVGID_1_" gradientUnits="userSpaceOnUse" x1="9.7133" y1="19.2094" x2="18.2858" y2="27.7819">
	<stop  offset="0" style="stop-color:#2680FF;stop-opacity:0.95"/>
	<stop  offset="1" style="stop-color:#2680FF;stop-opacity:0.5"/>
</linearGradient>
<path style="fill:url(#SVGID_1_);" d="M14.852,15.814c-0.183-0.296-0.505-0.477-0.853-0.477s-0.671,0.181-0.853,0.478l-0.912,1.486
	C10.759,19.706,9,22.993,9,25c0,2.757,2.243,5,5,5s5-2.243,5-5c0-2.009-1.76-5.296-3.235-7.699L14.852,15.814z"/>
<linearGradient id="SVGID_2_" gradientUnits="userSpaceOnUse" x1="9.7133" y1="19.2094" x2="18.2858" y2="27.7819">
	<stop  offset="0" style="stop-color:#FFFFFF;stop-opacity:0.6"/>
	<stop  offset="0.4927" style="stop-color:#FFFFFF;stop-opacity:0"/>
	<stop  offset="0.9971" style="stop-color:#FFFFFF;stop-opacity:0.3"/>
</linearGradient>
<path style="fill:url(#SVGID_2_);" d="M13.999,15.838c0.175,0,0.335,0.089,0.427,0.238l0.913,1.486
	C17.377,20.883,18.5,23.524,18.5,25c0,2.481-2.019,4.5-4.5,4.5S9.5,27.481,9.5,25c0-1.475,1.122-4.116,3.161-7.437l0.912-1.487
	C13.663,15.929,13.826,15.838,13.999,15.838 M13.999,15.338c-0.348,0-0.671,0.181-0.853,0.478l-0.912,1.486
	C10.759,19.706,9,22.993,9,25c0,2.757,2.243,5,5,5s5-2.243,5-5c0-2.009-1.76-5.296-3.235-7.699l-0.913-1.486
	C14.669,15.519,14.347,15.338,13.999,15.338L13.999,15.338z"/>
<linearGradient id="SVGID_3_" gradientUnits="userSpaceOnUse" x1="19.7124" y1="9.2062" x2="28.2869" y2="17.7807">
	<stop  offset="0" style="stop-color:#2680FF;stop-opacity:0.95"/>
	<stop  offset="1" style="stop-color:#2680FF;stop-opacity:0.5"/>
</linearGradient>
<path style="fill:url(#SVGID_3_);" d="M25.829,7.406l-0.977-1.6c-0.363-0.594-1.344-0.595-1.707,0.001l-0.976,1.6
	C20.724,9.778,19,13.021,19,15c0,2.757,2.243,5,5,5s5-2.243,5-5C29,13.015,27.275,9.774,25.829,7.406z"/>
<linearGradient id="SVGID_4_" gradientUnits="userSpaceOnUse" x1="19.7124" y1="9.2062" x2="28.2869" y2="17.7807">
	<stop  offset="0" style="stop-color:#FFFFFF;stop-opacity:0.6"/>
	<stop  offset="0.4927" style="stop-color:#FFFFFF;stop-opacity:0"/>
	<stop  offset="0.9971" style="stop-color:#FFFFFF;stop-opacity:0.3"/>
</linearGradient>
<path style="fill:url(#SVGID_4_);" d="M23.999,5.861c0.145,0,0.334,0.054,0.427,0.206l0.977,1.6C27.4,10.938,28.5,13.542,28.5,15
	c0,2.481-2.019,4.5-4.5,4.5s-4.5-2.019-4.5-4.5c0-1.454,1.1-4.058,3.097-7.332l0.976-1.6C23.665,5.915,23.854,5.861,23.999,5.861
	 M23.999,5.361c-0.336,0-0.672,0.149-0.854,0.447l-0.976,1.6C20.724,9.778,19,13.021,19,15c0,2.757,2.243,5,5,5s5-2.243,5-5
	c0-1.985-1.725-5.226-3.171-7.594l-0.977-1.6C24.671,5.51,24.335,5.361,23.999,5.361L23.999,5.361z"/>
<linearGradient id="SVGID_5_" gradientUnits="userSpaceOnUse" x1="4.5888" y1="5.4179" x2="11.3937" y2="12.2228">
	<stop  offset="0" style="stop-color:#2680FF;stop-opacity:0.95"/>
	<stop  offset="1" style="stop-color:#2680FF;stop-opacity:0.5"/>
</linearGradient>
<path style="fill:url(#SVGID_5_);" d="M11.991,9.971c0-0.437,0-1.764-2.203-5.474L8.851,2.919C8.671,2.615,8.344,2.43,7.991,2.43
	s-0.68,0.186-0.859,0.489L6.192,4.497C3.991,8.206,3.991,9.534,3.991,9.971c0,2.206,1.794,4,4,4S11.991,12.177,11.991,9.971z"/>
<linearGradient id="SVGID_6_" gradientUnits="userSpaceOnUse" x1="4.5888" y1="5.4179" x2="11.3937" y2="12.2228">
	<stop  offset="0" style="stop-color:#FFFFFF;stop-opacity:0.6"/>
	<stop  offset="0.4927" style="stop-color:#FFFFFF;stop-opacity:0"/>
	<stop  offset="0.9971" style="stop-color:#FFFFFF;stop-opacity:0.3"/>
</linearGradient>
<path style="fill:url(#SVGID_6_);" d="M7.991,2.93c0.176,0,0.34,0.093,0.43,0.245l0.937,1.578c1.415,2.383,2.133,4.139,2.133,5.218
	c0,1.93-1.57,3.5-3.5,3.5s-3.5-1.57-3.5-3.5c0-1.08,0.717-2.836,2.131-5.218l0.94-1.579C7.651,3.023,7.816,2.93,7.991,2.93
	 M7.991,2.43c-0.353,0-0.68,0.186-0.859,0.489L6.192,4.497C3.991,8.206,3.991,9.534,3.991,9.971c0,2.206,1.794,4,4,4s4-1.794,4-4
	c0-0.437,0-1.764-2.203-5.474L8.851,2.919C8.671,2.615,8.344,2.43,7.991,2.43L7.991,2.43z"/>
</svg>