<?xml version="1.0" encoding="iso-8859-1"?>
<!-- Generator: Adobe Illustrator 25.2.3, SVG Export Plug-In . SVG Version: 6.00 Build 0)  -->
<svg version="1.1" baseProfile="basic" id="Layer_2"
	 xmlns="http://www.w3.org/2000/svg" xmlns:xlink="http://www.w3.org/1999/xlink" x="0px" y="0px" viewBox="0 0 32 32"
	 xml:space="preserve">
<linearGradient id="SVGID_1_" gradientUnits="userSpaceOnUse" x1="7.5872" y1="6.6959" x2="22.1528" y2="21.2616">
	<stop  offset="0" style="stop-color:#FFBB00;stop-opacity:0.95"/>
	<stop  offset="1" style="stop-color:#FFBB00;stop-opacity:0.5"/>
</linearGradient>
<path style="fill:url(#SVGID_1_);" d="M13,30c-0.167,0-0.336-0.042-0.489-0.128c-0.427-0.24-0.617-0.754-0.45-1.214L15.572,19H8.011
	c-1.027,0-1.75-1.009-1.421-1.981l4.627-13.66C11.492,2.546,12.254,2,13.112,2h7.463c1.11,0,1.835,1.163,1.347,2.16L17.59,13H25
	c0.384,0,0.735,0.221,0.901,0.566c0.167,0.347,0.12,0.758-0.121,1.059l-12,15C13.585,29.869,13.295,30,13,30z"/>
<linearGradient id="SVGID_2_" gradientUnits="userSpaceOnUse" x1="7.5872" y1="6.6959" x2="22.1528" y2="21.2616">
	<stop  offset="0" style="stop-color:#FFFFFF;stop-opacity:0.6"/>
	<stop  offset="0.4927" style="stop-color:#FFFFFF;stop-opacity:0"/>
	<stop  offset="0.9971" style="stop-color:#FFFFFF;stop-opacity:0.3"/>
</linearGradient>
<path style="fill:url(#SVGID_2_);" d="M20.575,2.5c0.353,0,0.662,0.172,0.849,0.471c0.187,0.299,0.205,0.652,0.049,0.969
	l-4.332,8.84l-0.353,0.72h0.802H25c0.191,0,0.368,0.111,0.451,0.283c0.083,0.172,0.059,0.38-0.06,0.53l-12,15
	C13.295,29.432,13.153,29.5,13,29.5c-0.086,0-0.17-0.022-0.244-0.064c-0.215-0.121-0.31-0.376-0.226-0.607l3.512-9.658l0.244-0.671
	h-0.714H8.011c-0.326,0-0.622-0.152-0.813-0.417c-0.19-0.265-0.239-0.595-0.134-0.904l4.627-13.66
	C11.897,2.909,12.468,2.5,13.112,2.5H20.575 M20.575,2h-7.463c-0.857,0-1.619,0.546-1.894,1.358L6.59,17.019
	C6.261,17.991,6.984,19,8.011,19h7.561l-3.512,9.658c-0.167,0.46,0.023,0.974,0.45,1.214C12.664,29.958,12.833,30,13,30
	c0.295,0,0.586-0.131,0.781-0.375l12-15c0.24-0.301,0.287-0.712,0.121-1.059C25.735,13.221,25.384,13,25,13h-7.41l4.332-8.84
	C22.41,3.163,21.684,2,20.575,2L20.575,2z"/>
</svg>