<?xml version="1.0" encoding="iso-8859-1"?>
<!-- Generator: Adobe Illustrator 29.4.0, SVG Export Plug-In . SVG Version: 9.03 Build 0)  -->
<svg version="1.1" baseProfile="basic" id="Layer_2"
	 xmlns="http://www.w3.org/2000/svg" xmlns:xlink="http://www.w3.org/1999/xlink" x="0px" y="0px" viewBox="0 0 32 32"
	 xml:space="preserve">
<g>
	<g>
		<linearGradient id="SVGID_1_" gradientUnits="userSpaceOnUse" x1="8.0125" y1="6.4311" x2="23.9875" y2="22.4061">
			<stop  offset="0" style="stop-color:#FF3519;stop-opacity:0.95"/>
			<stop  offset="1" style="stop-color:#FF3519;stop-opacity:0.5"/>
		</linearGradient>
		<path style="fill:url(#SVGID_1_);" d="M16,3C9.925,3,5,7.925,5,14c0,7.234,7.152,10.697,8.048,11.503
			c0.915,0.823,1.671,2.668,1.976,3.714c0.148,0.508,0.564,0.765,0.976,0.776c0.413-0.012,0.828-0.269,0.976-0.776
			c0.305-1.046,1.061-2.89,1.976-3.714C19.848,24.697,27,21.234,27,14C27,7.925,22.075,3,16,3z"/>
	</g>
	<g>
		
			<linearGradient id="SVGID_00000036932619198038337700000012957713835116101768_" gradientUnits="userSpaceOnUse" x1="8.0125" y1="6.4311" x2="23.9875" y2="22.4061">
			<stop  offset="0" style="stop-color:#FFFFFF;stop-opacity:0.6"/>
			<stop  offset="0.4927" style="stop-color:#FFFFFF;stop-opacity:0"/>
			<stop  offset="0.9971" style="stop-color:#FFFFFF;stop-opacity:0.3"/>
		</linearGradient>
		<path style="fill:url(#SVGID_00000036932619198038337700000012957713835116101768_);" d="M16,3.5c5.79,0,10.5,4.71,10.5,10.5
			c0,5.899-4.949,9.161-7.063,10.553c-0.397,0.262-0.66,0.435-0.819,0.578c-1.038,0.934-1.822,2.919-2.122,3.945
			c-0.11,0.376-0.418,0.414-0.482,0.417c-0.092-0.003-0.4-0.04-0.51-0.417c-0.3-1.026-1.084-3.011-2.122-3.945
			c-0.16-0.144-0.422-0.317-0.819-0.578C10.449,23.161,5.5,19.899,5.5,14C5.5,8.21,10.21,3.5,16,3.5 M16,3C9.925,3,5,7.925,5,14
			c0,7.234,7.152,10.697,8.048,11.503c0.915,0.823,1.671,2.668,1.976,3.714c0.148,0.507,0.564,0.765,0.976,0.776
			c0.413-0.012,0.828-0.269,0.976-0.776c0.305-1.046,1.061-2.89,1.976-3.714C19.848,24.697,27,21.234,27,14C27,7.925,22.075,3,16,3
			L16,3z"/>
	</g>
</g>
<linearGradient id="SVGID_00000124122028711687712790000003894758356724932258_" gradientUnits="userSpaceOnUse" x1="13.8787" y1="11.8787" x2="18.1213" y2="16.1213">
	<stop  offset="0" style="stop-color:#FFFFFF;stop-opacity:0.8"/>
	<stop  offset="0.5196" style="stop-color:#FFFFFF;stop-opacity:0.5"/>
	<stop  offset="1" style="stop-color:#FFFFFF;stop-opacity:0.6"/>
</linearGradient>
<circle style="fill:url(#SVGID_00000124122028711687712790000003894758356724932258_);" cx="16" cy="14" r="3"/>
</svg>