<?xml version="1.0" encoding="iso-8859-1"?>
<!-- Generator: Adobe Illustrator 25.2.3, SVG Export Plug-In . SVG Version: 6.00 Build 0)  -->
<svg version="1.1" baseProfile="basic" id="Layer_2"
	 xmlns="http://www.w3.org/2000/svg" xmlns:xlink="http://www.w3.org/1999/xlink" x="0px" y="0px" viewBox="0 0 32 32"
	 xml:space="preserve">
<linearGradient id="SVGID_1_" gradientUnits="userSpaceOnUse" x1="18.8003" y1="7.5859" x2="29.4121" y2="18.1977">
	<stop  offset="0" style="stop-color:#FFC400;stop-opacity:0.95"/>
	<stop  offset="1" style="stop-color:#FFC400;stop-opacity:0.5"/>
</linearGradient>
<path style="fill:url(#SVGID_1_);" d="M31.69,12.84c-0.18-0.1-0.4-0.08-0.55,0.05C30.25,13.61,29.14,14,28,14c-2.76,0-5-2.24-5-5
	c0-1.14,0.39-2.25,1.11-3.14c0.13-0.15,0.15-0.37,0.05-0.55c-0.1-0.18-0.29-0.28-0.49-0.26C19.87,5.46,17,8.67,17,12.5
	c0,0.13,0,0.27,0.02,0.4c0.42,0.48,0.77,1.03,1.04,1.61c0.07,0,0.13-0.01,0.19-0.01c3.09,0,5.6,2.42,5.74,5.47
	C24.16,19.99,24.33,20,24.5,20c3.83,0,7.03-2.87,7.45-6.67C31.97,13.13,31.87,12.94,31.69,12.84z"/>
<linearGradient id="SVGID_2_" gradientUnits="userSpaceOnUse" x1="5.343" y1="13.3992" x2="19.2868" y2="27.343">
	<stop  offset="0" style="stop-color:#7259FF;stop-opacity:0.95"/>
	<stop  offset="1" style="stop-color:#7259FF;stop-opacity:0.5"/>
</linearGradient>
<path style="fill:url(#SVGID_2_);" d="M24,20.25c0-3.176-2.574-5.75-5.75-5.75c-0.063,0-0.124,0.007-0.186,0.009
	c-1.173-2.475-3.688-4.191-6.609-4.191c-3.781,0-6.892,2.868-7.277,6.548C2.333,17.503,1,19.235,1,21.295
	C1,23.894,3.106,26,5.705,26h13.068v-0.026C21.703,25.709,24,23.249,24,20.25z"/>
<linearGradient id="SVGID_3_" gradientUnits="userSpaceOnUse" x1="8.5294" y1="10.2128" x2="22.9655" y2="24.6489">
	<stop  offset="0" style="stop-color:#FFFFFF;stop-opacity:0.6"/>
	<stop  offset="0.4927" style="stop-color:#FFFFFF;stop-opacity:0"/>
	<stop  offset="0.9971" style="stop-color:#FFFFFF;stop-opacity:0.3"/>
</linearGradient>
<path style="fill:url(#SVGID_3_);" d="M23.72,5.55C22.933,6.523,22.5,7.748,22.5,9c0,3.033,2.467,5.5,5.5,5.5
	c1.251,0,2.477-0.433,3.45-1.22c-0.385,3.546-3.373,6.22-6.95,6.22c-0.134,0-0.265-0.01-0.397-0.019l-0.083-0.006l-0.56-0.038
	l0.027,0.561l0.006,0.106c0.003,0.048,0.007,0.097,0.007,0.146c0,2.734-2.052,4.98-4.772,5.226L18.563,25.5H5.705
	c-2.318,0-4.205-1.886-4.205-4.205c0-1.78,1.142-3.37,2.841-3.957l0.301-0.104l0.033-0.317c0.364-3.478,3.279-6.1,6.78-6.1
	c1.995,0,3.884,0.879,5.185,2.413l0.961,1.132l-0.08-1.483l-0.008-0.133C17.506,12.665,17.5,12.583,17.5,12.5
	c0-3.578,2.674-6.566,6.216-6.95l0.002,0L23.72,5.55 M23.718,5.05c-0.017,0-0.035,0.001-0.052,0.003C19.866,5.465,17,8.667,17,12.5
	c0,0.138,0.013,0.272,0.021,0.407c-1.34-1.58-3.331-2.589-5.566-2.589c-3.781,0-6.892,2.868-7.277,6.548
	C2.333,17.503,1,19.235,1,21.295C1,23.894,3.106,26,5.705,26h13.068v-0.026C21.703,25.709,24,23.249,24,20.25
	c0-0.093-0.01-0.184-0.014-0.276C24.157,19.986,24.327,20,24.5,20c3.833,0,7.034-2.865,7.447-6.666
	c0.022-0.201-0.08-0.396-0.257-0.492c-0.075-0.041-0.157-0.061-0.239-0.061c-0.112,0-0.224,0.038-0.315,0.111
	C30.251,13.606,29.137,14,28,14c-2.757,0-5-2.243-5-5c0-1.138,0.394-2.251,1.109-3.136c0.127-0.157,0.146-0.376,0.05-0.554
	C24.07,5.148,23.903,5.05,23.718,5.05L23.718,5.05z"/>
</svg>