<?xml version="1.0" encoding="iso-8859-1"?>
<!-- Generator: Adobe Illustrator 25.2.3, SVG Export Plug-In . SVG Version: 6.00 Build 0)  -->
<svg version="1.1" baseProfile="basic" id="Layer_2"
	 xmlns="http://www.w3.org/2000/svg" xmlns:xlink="http://www.w3.org/1999/xlink" x="0px" y="0px" viewBox="0 0 32 32"
	 xml:space="preserve">
<linearGradient id="SVGID_1_" gradientUnits="userSpaceOnUse" x1="4.1542" y1="13.9471" x2="17.4917" y2="27.2846">
	<stop  offset="0" style="stop-color:#00E9FF;stop-opacity:0.95"/>
	<stop  offset="1" style="stop-color:#00E9FF;stop-opacity:0.5"/>
</linearGradient>
<path style="fill:url(#SVGID_1_);" d="M22,20.5c0-3.038-2.462-5.5-5.5-5.5c-0.06,0-0.119,0.007-0.178,0.009
	C15.199,12.641,12.794,11,10,11c-3.617,0-6.592,2.744-6.961,6.263C1.275,17.872,0,19.529,0,21.5C0,23.985,2.015,26,4.5,26H17v-0.025
	C19.803,25.722,22,23.369,22,20.5z"/>
<linearGradient id="SVGID_2_" gradientUnits="userSpaceOnUse" x1="17.6454" y1="9.8741" x2="26.1282" y2="18.357">
	<stop  offset="0" style="stop-color:#FFBB00;stop-opacity:0.95"/>
	<stop  offset="1" style="stop-color:#FFBB00;stop-opacity:0.5"/>
</linearGradient>
<path style="fill:url(#SVGID_2_);" d="M27,15c0,2.98-2.17,5.45-5.02,5.92C21.99,20.78,22,20.64,22,20.5c0-3.04-2.46-5.5-5.5-5.5
	c-0.06,0-0.12,0.01-0.18,0.01c-0.28-0.6-0.65-1.16-1.09-1.65C15.94,10.85,18.26,9,21,9C24.31,9,27,11.69,27,15z"/>
<linearGradient id="SVGID_3_" gradientUnits="userSpaceOnUse" x1="30.7074" y1="14.2927" x2="30.7074" y2="16.2928" gradientTransform="matrix(0.7071 -0.7071 0.7071 0.7071 -5.163 19.5355)">
	<stop  offset="0" style="stop-color:#FFBB00;stop-opacity:0.95"/>
	<stop  offset="1" style="stop-color:#FFBB00;stop-opacity:0.5"/>
</linearGradient>
<path style="fill:url(#SVGID_3_);" d="M26.657,10.343c-0.256,0-0.512-0.098-0.707-0.293c-0.391-0.391-0.391-1.023,0-1.414
	l1.415-1.414c0.391-0.391,1.023-0.391,1.414,0s0.391,1.023,0,1.414l-1.415,1.414C27.168,10.245,26.913,10.343,26.657,10.343z"/>
<linearGradient id="SVGID_4_" gradientUnits="userSpaceOnUse" x1="29.5001" y1="14.0855" x2="31.9146" y2="16.4999" gradientTransform="matrix(1 0 0 1 -0.7071 -0.2929)">
	<stop  offset="0" style="stop-color:#FFBB00;stop-opacity:0.95"/>
	<stop  offset="1" style="stop-color:#FFBB00;stop-opacity:0.5"/>
</linearGradient>
<path style="fill:url(#SVGID_4_);" d="M28.293,15.707C28.112,15.526,28,15.276,28,15c0-0.552,0.447-1,1-1l2,0c0.552,0,1,0.447,1,1
	s-0.447,1-1,1l-2,0C28.724,16,28.474,15.888,28.293,15.707z"/>
<linearGradient id="SVGID_5_" gradientUnits="userSpaceOnUse" x1="32.2072" y1="14.7928" x2="29.7928" y2="17.2072" gradientTransform="matrix(4.489700e-11 -1 1 4.489700e-11 5 37)">
	<stop  offset="0" style="stop-color:#FFBB00;stop-opacity:0.95"/>
	<stop  offset="1" style="stop-color:#FFBB00;stop-opacity:0.5"/>
</linearGradient>
<path style="fill:url(#SVGID_5_);" d="M21,8c-0.552,0-1-0.447-1-1V5c0-0.553,0.448-1,1-1s1,0.447,1,1v2C22,7.553,21.552,8,21,8z"/>
<linearGradient id="SVGID_6_" gradientUnits="userSpaceOnUse" x1="32.7073" y1="16.7073" x2="28.7074" y2="16.7073" gradientTransform="matrix(-0.7071 -0.7071 0.7071 -0.7071 24.5355 42.163)">
	<stop  offset="0" style="stop-color:#FFBB00;stop-opacity:0.95"/>
	<stop  offset="1" style="stop-color:#FFBB00;stop-opacity:0.5"/>
</linearGradient>
<path style="fill:url(#SVGID_6_);" d="M15.343,10.343c-0.256,0-0.512-0.098-0.707-0.293l-1.415-1.414
	c-0.391-0.391-0.391-1.023,0-1.414c0.39-0.391,1.023-0.391,1.414,0l1.415,1.414c0.391,0.391,0.391,1.023,0,1.414
	C15.855,10.245,15.599,10.343,15.343,10.343z"/>
<linearGradient id="SVGID_7_" gradientUnits="userSpaceOnUse" x1="27.2932" y1="15.2931" x2="31.2931" y2="15.2931" gradientTransform="matrix(0.7071 0.7071 -0.7071 0.7071 17.4645 -10.163)">
	<stop  offset="0" style="stop-color:#FFBB00;stop-opacity:0.95"/>
	<stop  offset="1" style="stop-color:#FFBB00;stop-opacity:0.5"/>
</linearGradient>
<path style="fill:url(#SVGID_7_);" d="M28.071,23.071c-0.256,0-0.512-0.098-0.707-0.293l-1.415-1.414
	c-0.391-0.391-0.391-1.023,0-1.414c0.39-0.391,1.023-0.391,1.414,0l1.415,1.414c0.391,0.391,0.391,1.023,0,1.414
	C28.583,22.974,28.327,23.071,28.071,23.071z"/>
<linearGradient id="SVGID_8_" gradientUnits="userSpaceOnUse" x1="6.8309" y1="11.2703" x2="20.161" y2="24.6003">
	<stop  offset="0" style="stop-color:#FFFFFF;stop-opacity:0.6"/>
	<stop  offset="0.4927" style="stop-color:#FFFFFF;stop-opacity:0"/>
	<stop  offset="0.9971" style="stop-color:#FFFFFF;stop-opacity:0.3"/>
</linearGradient>
<path style="fill:url(#SVGID_8_);" d="M21,9.5c3.033,0,5.5,2.467,5.5,5.5c0,2.71-1.943,4.991-4.619,5.422l-0.389,0.063l-0.03,0.393
	c-0.186,2.446-2.081,4.38-4.507,4.599L16.796,25.5H4.5c-2.206,0-4-1.794-4-4c0-1.694,1.086-3.206,2.702-3.764l0.301-0.104
	l0.033-0.317C3.883,14,6.662,11.5,10,11.5c1.854,0,3.624,0.8,4.857,2.194l0.606,0.685l0.249-0.88C16.38,11.144,18.554,9.5,21,9.5
	 M21,9c-2.745,0-5.055,1.846-5.768,4.363C13.952,11.915,12.085,11,10,11c-3.617,0-6.592,2.744-6.961,6.263
	C1.275,17.872,0,19.529,0,21.5C0,23.985,2.015,26,4.5,26H17v-0.025c2.664-0.24,4.757-2.385,4.96-5.059
	C24.816,20.455,27,17.986,27,15C27,11.686,24.314,9,21,9L21,9z"/>
<linearGradient id="SVGID_9_" gradientUnits="userSpaceOnUse" x1="28.7928" y1="13.7928" x2="31.2072" y2="16.2072">
	<stop  offset="0" style="stop-color:#FFFFFF;stop-opacity:0.6"/>
	<stop  offset="0.4927" style="stop-color:#FFFFFF;stop-opacity:0"/>
	<stop  offset="0.9971" style="stop-color:#FFFFFF;stop-opacity:0.3"/>
</linearGradient>
<path style="fill:url(#SVGID_9_);" d="M31,14.5c0.276,0,0.5,0.224,0.5,0.5s-0.224,0.5-0.5,0.5h-2c-0.276,0-0.5-0.224-0.5-0.5
	s0.224-0.5,0.5-0.5H31 M31,14h-2c-0.552,0-1,0.447-1,1s0.448,1,1,1h2c0.552,0,1-0.447,1-1S31.552,14,31,14L31,14z"/>
<linearGradient id="SVGID_10_" gradientUnits="userSpaceOnUse" x1="26.6569" y1="7.9286" x2="28.0712" y2="9.3429">
	<stop  offset="0" style="stop-color:#FFFFFF;stop-opacity:0.6"/>
	<stop  offset="0.4927" style="stop-color:#FFFFFF;stop-opacity:0"/>
	<stop  offset="0.9971" style="stop-color:#FFFFFF;stop-opacity:0.3"/>
</linearGradient>
<path style="fill:url(#SVGID_10_);" d="M28.071,7.429c0.133,0,0.259,0.052,0.353,0.147c0.195,0.195,0.195,0.512,0,0.707L27.01,9.696
	c-0.094,0.094-0.22,0.147-0.354,0.147s-0.259-0.052-0.353-0.147c-0.195-0.195-0.195-0.512,0-0.707l1.415-1.414
	C27.812,7.481,27.938,7.429,28.071,7.429 M28.071,6.929c-0.256,0-0.512,0.098-0.707,0.293L25.95,8.636
	c-0.391,0.391-0.391,1.023,0,1.414c0.195,0.195,0.451,0.293,0.707,0.293s0.512-0.098,0.707-0.293l1.415-1.414
	c0.391-0.391,0.391-1.023,0-1.414C28.583,7.026,28.327,6.929,28.071,6.929L28.071,6.929z"/>
<linearGradient id="SVGID_11_" gradientUnits="userSpaceOnUse" x1="19.7928" y1="4.7928" x2="22.2072" y2="7.2072">
	<stop  offset="0" style="stop-color:#FFFFFF;stop-opacity:0.6"/>
	<stop  offset="0.4927" style="stop-color:#FFFFFF;stop-opacity:0"/>
	<stop  offset="0.9971" style="stop-color:#FFFFFF;stop-opacity:0.3"/>
</linearGradient>
<path style="fill:url(#SVGID_11_);" d="M21,4.5c0.276,0,0.5,0.224,0.5,0.5v2c0,0.276-0.224,0.5-0.5,0.5S20.5,7.276,20.5,7V5
	C20.5,4.724,20.724,4.5,21,4.5 M21,4c-0.552,0-1,0.447-1,1v2c0,0.553,0.448,1,1,1s1-0.447,1-1V5C22,4.447,21.552,4,21,4L21,4z"/>
<linearGradient id="SVGID_12_" gradientUnits="userSpaceOnUse" x1="13.2218" y1="7.2216" x2="16.0502" y2="10.0499">
	<stop  offset="0" style="stop-color:#FFFFFF;stop-opacity:0.6"/>
	<stop  offset="0.4927" style="stop-color:#FFFFFF;stop-opacity:0"/>
	<stop  offset="0.9971" style="stop-color:#FFFFFF;stop-opacity:0.3"/>
</linearGradient>
<path style="fill:url(#SVGID_12_);" d="M13.928,7.429c0.134,0,0.259,0.052,0.354,0.147l1.414,1.414c0.195,0.195,0.195,0.512,0,0.707
	c-0.094,0.094-0.219,0.146-0.353,0.146c-0.133,0-0.259-0.052-0.354-0.147l-1.414-1.414c-0.195-0.195-0.195-0.512,0-0.707
	C13.67,7.481,13.795,7.429,13.928,7.429 M13.928,6.929c-0.256,0-0.512,0.098-0.707,0.293c-0.391,0.391-0.391,1.023,0,1.414
	l1.415,1.414c0.195,0.195,0.451,0.293,0.707,0.293s0.512-0.098,0.707-0.293c0.391-0.391,0.391-1.023,0-1.414l-1.415-1.414
	C14.44,7.026,14.184,6.929,13.928,6.929L13.928,6.929z"/>
<linearGradient id="SVGID_13_" gradientUnits="userSpaceOnUse" x1="25.9498" y1="19.9501" x2="28.7782" y2="22.7784">
	<stop  offset="0" style="stop-color:#FFFFFF;stop-opacity:0.6"/>
	<stop  offset="0.4927" style="stop-color:#FFFFFF;stop-opacity:0"/>
	<stop  offset="0.9971" style="stop-color:#FFFFFF;stop-opacity:0.3"/>
</linearGradient>
<path style="fill:url(#SVGID_13_);" d="M26.656,20.157c0.134,0,0.259,0.052,0.354,0.147l1.414,1.414
	c0.195,0.195,0.195,0.512,0,0.707c-0.094,0.094-0.219,0.146-0.353,0.146c-0.133,0-0.259-0.052-0.354-0.147l-1.414-1.414
	c-0.195-0.195-0.195-0.512,0-0.707C26.398,20.209,26.523,20.157,26.656,20.157 M26.656,19.657c-0.256,0-0.512,0.098-0.707,0.293
	c-0.391,0.391-0.391,1.023,0,1.414l1.415,1.414c0.195,0.195,0.451,0.293,0.707,0.293s0.512-0.098,0.707-0.293
	c0.391-0.391,0.391-1.023,0-1.414l-1.415-1.414C27.168,19.755,26.912,19.657,26.656,19.657L26.656,19.657z"/>
</svg>