<svg xmlns="http://www.w3.org/2000/svg" xmlns:xlink="http://www.w3.org/1999/xlink" viewBox="0,0,256,256" width="128px" height="128px" fill-rule="nonzero"><defs><linearGradient x1="7.873" y1="6.813" x2="23.624" y2="22.564" gradientUnits="userSpaceOnUse" id="color-1"><stop offset="0" stop-color="#00e9ff" stop-opacity="0.94902"></stop><stop offset="1" stop-color="#00e9ff" stop-opacity="0.50196"></stop></linearGradient><linearGradient x1="7.873" y1="6.813" x2="23.624" y2="22.564" gradientUnits="userSpaceOnUse" id="color-2"><stop offset="0.002" stop-color="#ffffff" stop-opacity="0.6"></stop><stop offset="0.493" stop-color="#ffffff" stop-opacity="0"></stop><stop offset="0.996" stop-color="#ffffff" stop-opacity="0.30196"></stop></linearGradient><linearGradient x1="20.334" y1="25.251" x2="22.832" y2="27.749" gradientUnits="userSpaceOnUse" id="color-3"><stop offset="0" stop-color="#2680ff" stop-opacity="0.94902"></stop><stop offset="1" stop-color="#2680ff" stop-opacity="0.50196"></stop></linearGradient><linearGradient x1="20.334" y1="25.251" x2="22.832" y2="27.749" gradientUnits="userSpaceOnUse" id="color-4"><stop offset="0" stop-color="#ffffff" stop-opacity="0.6"></stop><stop offset="0.493" stop-color="#ffffff" stop-opacity="0"></stop><stop offset="0.997" stop-color="#ffffff" stop-opacity="0.30196"></stop></linearGradient><linearGradient x1="10.335" y1="25.251" x2="12.832" y2="27.749" gradientUnits="userSpaceOnUse" id="color-5"><stop offset="0" stop-color="#2680ff" stop-opacity="0.94902"></stop><stop offset="1" stop-color="#2680ff" stop-opacity="0.50196"></stop></linearGradient><linearGradient x1="10.335" y1="25.251" x2="12.832" y2="27.749" gradientUnits="userSpaceOnUse" id="color-6"><stop offset="0" stop-color="#ffffff" stop-opacity="0.6"></stop><stop offset="0.493" stop-color="#ffffff" stop-opacity="0"></stop><stop offset="0.997" stop-color="#ffffff" stop-opacity="0.30196"></stop></linearGradient><linearGradient x1="16.509" y1="24.076" x2="18.357" y2="25.924" gradientUnits="userSpaceOnUse" id="color-7"><stop offset="0" stop-color="#2680ff" stop-opacity="0.94902"></stop><stop offset="1" stop-color="#2680ff" stop-opacity="0.50196"></stop></linearGradient><linearGradient x1="16.509" y1="24.076" x2="18.357" y2="25.924" gradientUnits="userSpaceOnUse" id="color-8"><stop offset="0" stop-color="#ffffff" stop-opacity="0.6"></stop><stop offset="0.493" stop-color="#ffffff" stop-opacity="0"></stop><stop offset="0.997" stop-color="#ffffff" stop-opacity="0.30196"></stop></linearGradient><linearGradient x1="6.51" y1="24.076" x2="8.357" y2="25.924" gradientUnits="userSpaceOnUse" id="color-9"><stop offset="0" stop-color="#2680ff" stop-opacity="0.94902"></stop><stop offset="1" stop-color="#2680ff" stop-opacity="0.50196"></stop></linearGradient><linearGradient x1="6.51" y1="24.076" x2="8.357" y2="25.924" gradientUnits="userSpaceOnUse" id="color-10"><stop offset="0" stop-color="#ffffff" stop-opacity="0.6"></stop><stop offset="0.493" stop-color="#ffffff" stop-opacity="0"></stop><stop offset="0.997" stop-color="#ffffff" stop-opacity="0.30196"></stop></linearGradient></defs><g fill="none" fill-rule="nonzero" stroke="none" stroke-width="1" stroke-linecap="butt" stroke-linejoin="miter" stroke-miterlimit="10" stroke-dasharray="" stroke-dashoffset="0" font-family="none" font-weight="none" font-size="none" text-anchor="none" style="mix-blend-mode: normal"><g transform="scale(8,8)"><path d="M29,14.5c0,-3.59 -2.91,-6.5 -6.5,-6.5c-0.029,0 -0.057,0.004 -0.085,0.004c-1.187,-2.933 -4.057,-5.004 -7.415,-5.004c-4.418,0 -8,3.582 -8,8c0,0.034 0.005,0.067 0.005,0.1c-2.285,0.462 -4.005,2.479 -4.005,4.9c0,2.761 2.239,5 5,5h15v-0.025c3.355,-0.256 6,-3.054 6,-6.475z" fill="url(#color-1)"></path><path d="M15,3.5c3.07,0 5.798,1.842 6.951,4.692l0.128,0.317l0.342,-0.004l0.079,-0.005c3.308,0 6,2.692 6,6c0,3.114 -2.433,5.739 -5.538,5.976l-0.182,0.024h-14.78c-2.481,0 -4.5,-2.019 -4.5,-4.5c0,-2.133 1.516,-3.988 3.604,-4.41l0.406,-0.082l-0.005,-0.414l-0.004,-0.079l-0.001,-0.015c0,-4.135 3.365,-7.5 7.5,-7.5M15,3c-4.418,0 -8,3.582 -8,8c0,0.034 0.005,0.067 0.005,0.1c-2.285,0.462 -4.005,2.479 -4.005,4.9c0,2.761 2.239,5 5,5h15v-0.025c3.355,-0.256 6,-3.054 6,-6.475c0,-3.59 -2.91,-6.5 -6.5,-6.5c-0.029,0 -0.057,0.004 -0.085,0.004c-1.187,-2.933 -4.057,-5.004 -7.415,-5.004z" fill="url(#color-2)"></path><path d="M20.166,30c-0.167,0 -0.336,-0.042 -0.492,-0.13c-0.48,-0.272 -0.649,-0.883 -0.377,-1.363l2.833,-5c0.272,-0.479 0.881,-0.648 1.363,-0.377c0.48,0.272 0.649,0.883 0.377,1.363l-2.833,5c-0.184,0.324 -0.522,0.507 -0.871,0.507z" fill="url(#color-3)"></path><path d="M23.001,23.5v0c0.087,0 0.17,0.022 0.246,0.065c0.116,0.066 0.2,0.173 0.236,0.302c0.036,0.129 0.019,0.264 -0.047,0.38l-2.832,4.999c-0.089,0.157 -0.257,0.254 -0.437,0.254c-0.086,0 -0.17,-0.022 -0.246,-0.065c-0.24,-0.136 -0.325,-0.442 -0.189,-0.682l2.833,-4.999c0.088,-0.157 0.256,-0.254 0.436,-0.254M23.001,23c-0.349,0 -0.687,0.182 -0.871,0.507l-2.833,5c-0.272,0.48 -0.104,1.091 0.377,1.363c0.156,0.088 0.325,0.13 0.492,0.13c0.349,0 0.687,-0.183 0.871,-0.507l2.833,-5c0.272,-0.48 0.104,-1.091 -0.377,-1.363c-0.156,-0.088 -0.325,-0.13 -0.492,-0.13z" fill="url(#color-4)"></path><path d="M10.166,30c-0.167,0 -0.336,-0.042 -0.492,-0.13c-0.48,-0.272 -0.649,-0.883 -0.377,-1.363l2.833,-5c0.273,-0.479 0.881,-0.648 1.363,-0.377c0.48,0.272 0.649,0.883 0.377,1.363l-2.833,5c-0.184,0.324 -0.522,0.507 -0.871,0.507z" fill="url(#color-5)"></path><path d="M13.001,23.5v0c0.087,0 0.17,0.022 0.245,0.065c0.116,0.066 0.2,0.173 0.236,0.302c0.036,0.129 0.019,0.264 -0.047,0.38l-2.832,4.999c-0.089,0.157 -0.257,0.254 -0.437,0.254c-0.086,0 -0.17,-0.022 -0.246,-0.065c-0.24,-0.136 -0.325,-0.442 -0.189,-0.682l2.832,-4.999c0.091,-0.156 0.258,-0.254 0.438,-0.254M13.001,23c-0.348,0 -0.686,0.182 -0.871,0.507l-2.833,5c-0.272,0.48 -0.104,1.091 0.377,1.363c0.156,0.088 0.325,0.13 0.492,0.13c0.349,0 0.687,-0.183 0.871,-0.507l2.833,-5c0.272,-0.48 0.104,-1.091 -0.377,-1.363c-0.156,-0.088 -0.325,-0.13 -0.492,-0.13z" fill="url(#color-6)"></path><path d="M16.865,27c-0.167,0 -0.336,-0.042 -0.492,-0.13c-0.48,-0.272 -0.649,-0.883 -0.377,-1.363l1.134,-2c0.272,-0.479 0.882,-0.648 1.363,-0.377c0.48,0.272 0.649,0.883 0.377,1.363l-1.134,2c-0.184,0.324 -0.522,0.507 -0.871,0.507z" fill="url(#color-7)"></path><path d="M18.001,23.5v0c0.087,0 0.17,0.022 0.245,0.065c0.116,0.066 0.2,0.173 0.236,0.302c0.036,0.129 0.019,0.264 -0.047,0.38l-1.133,1.999c-0.089,0.157 -0.257,0.254 -0.437,0.254c-0.086,0 -0.17,-0.022 -0.246,-0.065c-0.116,-0.066 -0.2,-0.173 -0.236,-0.302c-0.036,-0.129 -0.019,-0.264 0.047,-0.38l1.134,-2c0.089,-0.156 0.257,-0.253 0.437,-0.253M18.001,23c-0.349,0 -0.687,0.182 -0.871,0.507l-1.134,2c-0.272,0.48 -0.104,1.091 0.377,1.363c0.156,0.088 0.325,0.13 0.492,0.13c0.349,0 0.687,-0.183 0.871,-0.507l1.134,-2c0.272,-0.48 0.104,-1.091 -0.377,-1.363c-0.156,-0.088 -0.325,-0.13 -0.492,-0.13z" fill="url(#color-8)"></path><path d="M6.865,27c-0.167,0 -0.336,-0.042 -0.492,-0.13c-0.48,-0.272 -0.649,-0.883 -0.377,-1.363l1.134,-2c0.273,-0.479 0.881,-0.648 1.363,-0.377c0.48,0.272 0.649,0.883 0.377,1.363l-1.134,2c-0.184,0.324 -0.522,0.507 -0.871,0.507z" fill="url(#color-9)"></path><path d="M8.001,23.5v0c0.087,0 0.17,0.022 0.245,0.065c0.116,0.066 0.2,0.173 0.236,0.302c0.036,0.129 0.019,0.264 -0.047,0.38l-1.133,1.999c-0.089,0.157 -0.257,0.254 -0.437,0.254c-0.086,0 -0.17,-0.022 -0.246,-0.065c-0.116,-0.066 -0.2,-0.173 -0.236,-0.302c-0.036,-0.129 -0.019,-0.264 0.047,-0.38l1.133,-1.999c0.091,-0.156 0.258,-0.254 0.438,-0.254M8.001,23c-0.348,0 -0.686,0.182 -0.871,0.507l-1.134,2c-0.272,0.48 -0.104,1.091 0.377,1.363c0.156,0.088 0.325,0.13 0.492,0.13c0.349,0 0.687,-0.183 0.871,-0.507l1.134,-2c0.272,-0.48 0.104,-1.091 -0.377,-1.363c-0.156,-0.088 -0.325,-0.13 -0.492,-0.13z" fill="url(#color-10)"></path></g></g></svg>