<?xml version="1.0" encoding="UTF-8"?>
<svg id="_Слой_2" data-name="Слой 2" xmlns="http://www.w3.org/2000/svg" xmlns:xlink="http://www.w3.org/1999/xlink" viewBox="0 0 26 23.47">
  <defs>
    <style>
      .cls-1 {
        fill: url(#_Безымянный_градиент);
      }

      .cls-2 {
        fill: url(#_Безымянный_градиент_3);
      }

      .cls-3 {
        fill: url(#_Безымянный_градиент_2);
      }

      .cls-4 {
        fill: url(#_Безымянный_градиент_3-3);
      }

      .cls-5 {
        fill: url(#_Безымянный_градиент_3-2);
      }

      .cls-6 {
        fill: url(#_Безымянный_градиент_10-2);
      }

      .cls-7 {
        fill: url(#_Безымянный_градиент_10-5);
      }

      .cls-8 {
        fill: url(#_Безымянный_градиент_10-6);
      }

      .cls-9 {
        fill: url(#_Безымянный_градиент_10-4);
      }

      .cls-10 {
        fill: url(#_Безымянный_градиент_10-3);
      }

      .cls-11 {
        fill: url(#_Безымянный_градиент_14-3);
      }

      .cls-12 {
        fill: url(#_Безымянный_градиент_14-2);
      }

      .cls-13 {
        fill: url(#_Безымянный_градиент_10);
      }

      .cls-14 {
        fill: url(#_Безымянный_градиент_14);
      }
    </style>
    <linearGradient id="_Безымянный_градиент" data-name="Безымянный градиент" x1="4.87" y1="21.52" x2="20.62" y2="5.77" gradientTransform="translate(0 25.34) scale(1 -1)" gradientUnits="userSpaceOnUse">
      <stop offset="0" stop-color="#7259ff" stop-opacity=".95"/>
      <stop offset="1" stop-color="#7259ff" stop-opacity=".5"/>
    </linearGradient>
    <linearGradient id="_Безымянный_градиент_2" data-name="Безымянный градиент 2" x1="4.87" y1="21.52" x2="20.62" y2="5.77" gradientTransform="translate(0 25.34) scale(1 -1)" gradientUnits="userSpaceOnUse">
      <stop offset="0" stop-color="#fff" stop-opacity=".6"/>
      <stop offset=".49" stop-color="#fff" stop-opacity="0"/>
      <stop offset="1" stop-color="#fff" stop-opacity=".3"/>
    </linearGradient>
    <linearGradient id="_Безымянный_градиент_3" data-name="Безымянный градиент 3" x1="10.05" y1="5.06" x2="10.97" y2="4.15" gradientTransform="translate(23.51 14.98) rotate(-180) scale(1 -1)" gradientUnits="userSpaceOnUse">
      <stop offset="0" stop-color="#2680ff" stop-opacity=".95"/>
      <stop offset="1" stop-color="#2680ff" stop-opacity=".5"/>
    </linearGradient>
    <linearGradient id="_Безымянный_градиент_10" data-name="Безымянный градиент 10" x1="10.05" y1="5.06" x2="10.97" y2="4.15" gradientTransform="translate(23.51 14.98) rotate(-180) scale(1 -1)" gradientUnits="userSpaceOnUse">
      <stop offset="0" stop-color="#fff" stop-opacity=".6"/>
      <stop offset=".49" stop-color="#fff" stop-opacity="0"/>
      <stop offset="1" stop-color="#fff" stop-opacity=".3"/>
    </linearGradient>
    <linearGradient id="_Безымянный_градиент_3-2" data-name="Безымянный градиент 3" x1="15.21" y1="6.61" x2="16.27" y2="5.55" gradientTransform="translate(33.97 13.28) rotate(-180) scale(1 -1)" xlink:href="#_Безымянный_градиент_3"/>
    <linearGradient id="_Безымянный_градиент_10-2" data-name="Безымянный градиент 10" x1="15.21" y1="6.61" x2="16.27" y2="5.55" gradientTransform="translate(33.97 13.28) rotate(-180) scale(1 -1)" xlink:href="#_Безымянный_градиент_10"/>
    <linearGradient id="_Безымянный_градиент_3-3" data-name="Безымянный градиент 3" x1="4.75" y1="6.61" x2="5.81" y2="5.55" gradientTransform="translate(13.05 13.28) rotate(-180) scale(1 -1)" xlink:href="#_Безымянный_градиент_3"/>
    <linearGradient id="_Безымянный_градиент_10-3" data-name="Безымянный градиент 10" x1="4.75" y1="6.61" x2="5.81" y2="5.55" gradientTransform="translate(13.05 13.28) rotate(-180) scale(1 -1)" xlink:href="#_Безымянный_градиент_10"/>
    <linearGradient id="_Безымянный_градиент_14" data-name="Безымянный градиент 14" x1="6.02" y1="4.12" x2="7.46" y2="2.68" gradientTransform="translate(0 25.34) scale(1 -1)" gradientUnits="userSpaceOnUse">
      <stop offset="0" stop-color="#00e9ff" stop-opacity=".95"/>
      <stop offset="1" stop-color="#00e9ff" stop-opacity=".5"/>
    </linearGradient>
    <linearGradient id="_Безымянный_градиент_10-4" data-name="Безымянный градиент 10" x1="6.02" y1="4.12" x2="7.46" y2="2.68" gradientTransform="translate(0 25.34) scale(1 -1)" xlink:href="#_Безымянный_градиент_10"/>
    <linearGradient id="_Безымянный_градиент_14-2" data-name="Безымянный градиент 14" x1="11.25" y1="3.57" x2="12.69" y2="2.13" xlink:href="#_Безымянный_градиент_14"/>
    <linearGradient id="_Безымянный_градиент_10-5" data-name="Безымянный градиент 10" x1="11.25" y1="3.57" x2="12.69" y2="2.13" gradientTransform="translate(0 25.34) scale(1 -1)" xlink:href="#_Безымянный_градиент_10"/>
    <linearGradient id="_Безымянный_градиент_14-3" data-name="Безымянный градиент 14" x1="16.48" y1="4.12" x2="17.92" y2="2.68" xlink:href="#_Безымянный_градиент_14"/>
    <linearGradient id="_Безымянный_градиент_10-6" data-name="Безымянный градиент 10" x1="16.48" y1="4.12" x2="17.92" y2="2.68" gradientTransform="translate(0 25.34) scale(1 -1)" xlink:href="#_Безымянный_градиент_10"/>
  </defs>
  <g id="Layer_2" data-name="Layer 2">
    <path class="cls-1" d="M26,11.5c0-3.59-2.91-6.5-6.5-6.5-.03,0-.06,0-.08,0-1.19-2.93-4.06-5-7.42-5C7.58,0,4,3.58,4,8c0,.03,0,.07,0,.1-2.29.46-4.01,2.48-4.01,4.9,0,2.76,2.24,5,5,5h15v-.02c3.35-.26,6-3.05,6-6.48Z"/>
    <path class="cls-3" d="M12,.5c3.07,0,5.8,1.84,6.95,4.69l.13.32h.34s.08,0,.08,0c3.31,0,6,2.69,6,6,0,3.11-2.43,5.74-5.54,5.98l-.18.02H5c-2.48,0-4.5-2.02-4.5-4.5,0-2.13,1.52-3.99,3.6-4.41l.41-.08v-.41s0-.08,0-.08v-.02c0-4.14,3.36-7.5,7.5-7.5M12,0C7.58,0,4,3.58,4,8c0,.03,0,.07,0,.1-2.29.46-4.01,2.48-4.01,4.9,0,2.76,2.24,5,5,5h15v-.02c3.35-.26,6-3.05,6-6.48,0-3.59-2.91-6.5-6.5-6.5-.03,0-.06,0-.08,0-1.19-2.93-4.06-5-7.42-5h0Z"/>
    <path class="cls-2" d="M13.67,18.23c.08,0,.16.02.23.05.23.11.31.34.18.53l-1.34,1.94c-.13.19-.42.25-.64.15-.23-.11-.31-.34-.18-.53l1.34-1.94c.09-.13.25-.2.41-.2Z"/>
    <path class="cls-13" d="M12.33,20.75h0s-.08,0-.12-.03c-.05-.03-.09-.07-.11-.12s0-.1.02-.15l1.34-1.94c.04-.06.12-.1.21-.1.04,0,.08,0,.12.03.11.05.15.17.09.26l-1.34,1.94c-.04.06-.12.1-.21.1M12.33,20.94c.16,0,.32-.07.41-.2l1.34-1.94c.13-.19.05-.42-.18-.53-.07-.03-.15-.05-.23-.05-.16,0-.32.07-.41.2l-1.34,1.94c-.13.19-.05.42.18.53.07.03.15.05.23.05h0Z"/>
    <path class="cls-5" d="M18.6,18.23c.11,0,.22.02.32.07.32.15.43.5.25.77l-.75,1.13c-.18.27-.58.37-.9.21-.32-.15-.43-.5-.25-.77l.75-1.13c.12-.18.34-.29.57-.29Z"/>
    <path class="cls-6" d="M17.85,20.21h0c-.06,0-.11-.01-.16-.04-.08-.04-.13-.1-.16-.17s-.01-.15.03-.22l.74-1.13c.06-.09.17-.14.29-.14.06,0,.11.01.16.04.08.04.13.1.16.17.02.07.01.15-.03.22l-.74,1.13c-.06.09-.17.14-.29.14M17.85,20.5c.23,0,.45-.1.57-.29l.75-1.13c.18-.27.07-.62-.25-.77-.1-.05-.21-.07-.32-.07-.23,0-.45.1-.57.29l-.75,1.13c-.18.27-.07.62.25.77.1.05.21.07.32.07h0Z"/>
    <path class="cls-4" d="M8.15,18.23c.11,0,.22.02.32.07.32.15.43.5.25.77l-.75,1.13c-.18.27-.58.37-.9.21-.32-.15-.43-.5-.25-.77l.75-1.13c.12-.18.34-.29.57-.29Z"/>
    <path class="cls-10" d="M7.4,20.21h0c-.06,0-.11-.01-.16-.04-.08-.04-.13-.1-.16-.17s-.01-.15.03-.22l.74-1.13c.06-.09.17-.14.29-.14.06,0,.11.01.16.04.08.04.13.1.16.17.02.07.01.15-.03.22l-.74,1.13c-.06.09-.17.14-.29.14M7.4,20.5c.23,0,.45-.1.57-.29l.75-1.13c.18-.27.07-.62-.25-.77-.1-.05-.21-.07-.32-.07-.23,0-.45.1-.57.29l-.75,1.13c-.18.27-.07.62.25.77.1.05.21.07.32.07h0Z"/>
    <path class="cls-14" d="M7.56,22.04l-.2-.11.2-.11c.15-.08.2-.25.11-.39-.09-.14-.27-.18-.42-.1l-.2.11v-.22c0-.16-.14-.28-.31-.28s-.31.13-.31.28v.22l-.2-.11c-.15-.08-.34-.03-.42.1-.08.14-.03.31.11.39l.2.11-.2.11c-.15.08-.2.25-.11.39.06.09.16.14.27.14.05,0,.11-.01.15-.04l.2-.11v.22c0,.16.14.28.31.28s.31-.13.31-.28v-.22l.2.11s.1.04.15.04c.11,0,.21-.05.27-.14.09-.14.03-.31-.11-.39Z"/>
    <path class="cls-9" d="M6.74,21.08c.08,0,.15.06.15.14v.46l.23-.12.2-.11s.05-.02.08-.02c.06,0,.11.03.13.07.04.07.02.15-.06.19l-.2.11-.23.12.23.12.2.11c.07.04.1.13.06.19-.03.04-.08.07-.13.07-.03,0-.05,0-.08-.02l-.2-.11-.23-.12v.46c0,.08-.07.14-.15.14s-.15-.06-.15-.14v-.46l-.23.12-.2.11s-.05.02-.08.02c-.06,0-.11-.03-.13-.07-.04-.07-.02-.15.06-.19l.2-.11.23-.12-.23-.12-.2-.11c-.07-.04-.1-.13-.06-.19.03-.04.08-.07.13-.07.03,0,.05,0,.08.02l.2.11.23.12v-.46c0-.08.07-.14.15-.14M6.74,20.94c-.17,0-.31.13-.31.28v.22l-.2-.11s-.1-.04-.15-.04c-.11,0-.21.05-.27.14-.08.14-.03.31.11.39l.2.11-.2.11c-.15.08-.2.25-.11.39.06.09.16.14.27.14.05,0,.11-.01.15-.04l.2-.11v.22c0,.16.14.28.31.28s.31-.13.31-.28v-.22l.2.11s.1.04.15.04c.11,0,.21-.05.27-.14.08-.14.03-.31-.11-.39l-.2-.11.2-.11c.15-.08.2-.25.11-.39-.06-.09-.16-.14-.27-.14-.05,0-.11.01-.15.04l-.2.11v-.22c0-.16-.14-.28-.31-.28h0Z"/>
    <path class="cls-12" d="M12.79,22.59l-.2-.11.2-.11c.15-.08.2-.25.11-.39-.09-.14-.27-.18-.42-.1l-.2.11v-.22c0-.16-.14-.28-.31-.28s-.31.13-.31.28v.22l-.2-.11c-.15-.08-.34-.03-.42.1-.08.14-.03.31.11.39l.2.11-.2.11c-.15.08-.2.25-.11.39.06.09.16.14.27.14.05,0,.11-.01.15-.04l.2-.11v.22c0,.16.14.28.31.28s.31-.13.31-.28v-.22l.2.11s.1.04.15.04c.11,0,.21-.05.27-.14.09-.14.03-.31-.11-.39Z"/>
    <path class="cls-7" d="M11.97,21.63c.08,0,.15.06.15.14v.46l.23-.12.2-.11s.05-.02.08-.02c.06,0,.11.03.13.07.04.07.02.15-.06.19l-.2.11-.23.12.23.12.2.11c.07.04.1.13.06.19-.03.04-.08.07-.13.07-.03,0-.05,0-.08-.02l-.2-.11-.23-.12v.46c0,.08-.07.14-.15.14s-.15-.06-.15-.14v-.46l-.23.12-.2.11s-.05.02-.08.02c-.06,0-.11-.03-.13-.07-.04-.07-.02-.15.06-.19l.2-.11.23-.12-.23-.12-.2-.11c-.07-.04-.1-.13-.06-.19.03-.04.08-.07.13-.07.03,0,.05,0,.08.02l.2.11.23.12v-.46c0-.08.07-.14.15-.14M11.97,21.49c-.17,0-.31.13-.31.28v.22l-.2-.11s-.1-.04-.15-.04c-.11,0-.21.05-.27.14-.08.14-.03.31.11.39l.2.11-.2.11c-.15.08-.2.25-.11.39.06.09.16.14.27.14.05,0,.11-.01.15-.04l.2-.11v.22c0,.16.14.28.31.28s.31-.13.31-.28v-.22l.2.11s.1.04.15.04c.11,0,.21-.05.27-.14.08-.14.03-.31-.11-.39l-.2-.11.2-.11c.15-.08.2-.25.11-.39-.06-.09-.16-.14-.27-.14-.05,0-.11.01-.15.04l-.2.11v-.22c0-.16-.14-.28-.31-.28h0Z"/>
    <path class="cls-11" d="M18.02,22.04l-.2-.11.2-.11c.15-.08.2-.25.11-.39-.09-.14-.27-.18-.42-.1l-.2.11v-.22c0-.16-.14-.28-.31-.28s-.31.13-.31.28v.22l-.2-.11c-.15-.08-.34-.03-.42.1-.08.14-.03.31.11.39l.2.11-.2.11c-.15.08-.2.25-.11.39.06.09.16.14.27.14.05,0,.11-.01.15-.04l.2-.11v.22c0,.16.14.28.31.28s.31-.13.31-.28v-.22l.2.11s.1.04.15.04c.11,0,.21-.05.27-.14.09-.14.03-.31-.11-.39Z"/>
    <path class="cls-8" d="M17.2,21.08c.08,0,.15.06.15.14v.46l.23-.12.2-.11s.05-.02.08-.02c.06,0,.11.03.13.07.04.07.02.15-.06.19l-.2.11-.23.12.23.12.2.11c.07.04.1.13.06.19-.03.04-.08.07-.13.07-.03,0-.05,0-.08-.02l-.2-.11-.23-.12v.46c0,.08-.07.14-.15.14s-.15-.06-.15-.14v-.46l-.23.12-.2.11s-.05.02-.08.02c-.06,0-.11-.03-.13-.07-.04-.07-.02-.15.06-.19l.2-.11.23-.12-.23-.12-.2-.11c-.07-.04-.1-.13-.06-.19.03-.04.08-.07.13-.07.03,0,.05,0,.08.02l.2.11.23.12v-.46c0-.08.07-.14.15-.14M17.2,20.94c-.17,0-.31.13-.31.28v.22l-.2-.11s-.1-.04-.15-.04c-.11,0-.21.05-.27.14-.08.14-.03.31.11.39l.2.11-.2.11c-.15.08-.2.25-.11.39.06.09.16.14.27.14.05,0,.11-.01.15-.04l.2-.11v.22c0,.16.14.28.31.28s.31-.13.31-.28v-.22l.2.11s.1.04.15.04c.11,0,.21-.05.27-.14.08-.14.03-.31-.11-.39l-.2-.11.2-.11c.15-.08.2-.25.11-.39-.06-.09-.16-.14-.27-.14-.05,0-.11.01-.15.04l-.2.11v-.22c0-.16-.14-.28-.31-.28h0Z"/>
  </g>
</svg>