<?xml version="1.0" encoding="iso-8859-1"?>
<!-- Generator: Adobe Illustrator 25.2.3, SVG Export Plug-In . SVG Version: 6.00 Build 0)  -->
<svg version="1.1" baseProfile="basic" id="Layer_2"
	 xmlns="http://www.w3.org/2000/svg" xmlns:xlink="http://www.w3.org/1999/xlink" x="0px" y="0px" viewBox="0 0 32 32"
	 xml:space="preserve">
<linearGradient id="SVGID_1_" gradientUnits="userSpaceOnUse" x1="7.0966" y1="7.0965" x2="24.9034" y2="24.9034">
	<stop  offset="0" style="stop-color:#00E9FF;stop-opacity:0.95"/>
	<stop  offset="1" style="stop-color:#00E9FF;stop-opacity:0.5"/>
</linearGradient>
<path style="fill:url(#SVGID_1_);" d="M26.892,21.134l-1.846-1.066l1.557-0.77c0.183-0.091,0.327-0.231,0.422-0.396
	c0.162-0.28,0.185-0.633,0.031-0.944c-0.245-0.495-0.844-0.698-1.34-0.453l-2.753,1.361L18,16l4.965-2.866l2.753,1.361
	c0.495,0.245,1.094,0.042,1.34-0.453c0.244-0.495,0.041-1.093-0.453-1.34l-1.557-0.77l1.846-1.066
	c0.478-0.276,0.642-0.887,0.366-1.366c-0.276-0.479-0.888-0.642-1.366-0.366L24.047,10.2l0.112-1.733
	c0.013-0.204-0.036-0.399-0.131-0.563c-0.162-0.28-0.455-0.476-0.802-0.499c-0.551-0.035-1.026,0.382-1.062,0.934l-0.198,3.064
	L17,14.268V8.535l2.555-1.703c0.459-0.307,0.583-0.927,0.277-1.387c-0.307-0.46-0.928-0.583-1.387-0.277L17,6.131V4
	c0-0.552-0.447-1-1-1s-1,0.448-1,1v2.131l-1.445-0.963c-0.46-0.306-1.08-0.183-1.387,0.277c-0.306,0.46-0.182,1.08,0.277,1.387
	L15,8.535v5.733l-4.965-2.866L9.838,8.338C9.802,7.786,9.327,7.369,8.775,7.404C8.224,7.44,7.807,7.916,7.842,8.466L7.953,10.2
	L6.108,9.134C5.629,8.858,5.018,9.021,4.742,9.5c-0.276,0.479-0.112,1.09,0.366,1.366l1.846,1.066l-1.557,0.77
	c-0.495,0.246-0.698,0.844-0.453,1.34c0.245,0.495,0.844,0.698,1.34,0.453l2.753-1.361L14,16l-4.965,2.866l-2.753-1.361
	c-0.495-0.245-1.094-0.042-1.34,0.453c-0.245,0.496-0.041,1.095,0.453,1.34l1.557,0.77l-1.846,1.066
	C4.629,21.41,4.465,22.021,4.742,22.5c0.276,0.479,0.888,0.642,1.366,0.366L7.953,21.8l-0.112,1.733
	c-0.034,0.552,0.382,1.027,0.934,1.062c0.551,0.035,1.026-0.382,1.062-0.934l0.198-3.064L15,17.732v5.733l-2.555,1.703
	c-0.459,0.307-0.583,0.927-0.277,1.387c0.307,0.459,0.926,0.582,1.387,0.277L15,25.869V28c0,0.552,0.447,1,1,1s1-0.448,1-1v-2.131
	l1.445,0.963C18.616,26.945,18.809,27,18.999,27c0.323,0,0.64-0.156,0.833-0.445c0.306-0.46,0.182-1.08-0.277-1.387L17,23.465
	v-5.733l4.965,2.866l0.198,3.064c0.036,0.551,0.511,0.969,1.062,0.934c0.551-0.036,0.967-0.511,0.934-1.062L24.047,21.8l1.846,1.066
	c0.478,0.276,1.09,0.113,1.366-0.366C27.535,22.021,27.371,21.41,26.892,21.134z"/>
<linearGradient id="SVGID_2_" gradientUnits="userSpaceOnUse" x1="7.0965" y1="7.0965" x2="24.9034" y2="24.9034">
	<stop  offset="0" style="stop-color:#FFFFFF;stop-opacity:0.6"/>
	<stop  offset="0.4927" style="stop-color:#FFFFFF;stop-opacity:0"/>
	<stop  offset="0.9971" style="stop-color:#FFFFFF;stop-opacity:0.3"/>
</linearGradient>
<path style="fill:url(#SVGID_2_);" d="M16,3.5c0.276,0,0.5,0.224,0.5,0.5v2.131v0.934l0.777-0.518l1.445-0.963
	C18.805,5.529,18.901,5.5,18.999,5.5c0.168,0,0.324,0.083,0.417,0.222c0.153,0.23,0.091,0.541-0.138,0.694l-2.555,1.703L16.5,8.268
	v0.268v5.733v0.866l0.75-0.433l4.965-2.866l0.232-0.134l0.017-0.267l0.198-3.064c0.017-0.262,0.235-0.467,0.529-0.467
	c0.001,0,0.001,0,0.002,0c0.167,0.011,0.318,0.104,0.402,0.25c0.049,0.085,0.072,0.182,0.065,0.281l-0.112,1.733l-0.06,0.932
	l0.809-0.467l1.846-1.066C26.22,9.522,26.303,9.5,26.392,9.5c0.178,0,0.345,0.096,0.434,0.25c0.138,0.239,0.056,0.545-0.183,0.683
	l-1.846,1.066l-0.809,0.467l0.837,0.414l1.555,0.769c0.247,0.123,0.35,0.424,0.228,0.67c-0.085,0.172-0.257,0.279-0.449,0.279
	c-0.077,0-0.151-0.018-0.221-0.052l-2.752-1.361l-0.24-0.119l-0.232,0.134l-4.965,2.866L17,16l0.75,0.433l4.965,2.866l0.232,0.134
	l0.24-0.119l2.752-1.361c0.07-0.035,0.144-0.052,0.221-0.052c0.192,0,0.364,0.107,0.449,0.278c0.074,0.15,0.068,0.327-0.016,0.473
	c-0.049,0.085-0.122,0.153-0.211,0.197l-1.557,0.77l-0.837,0.414l0.809,0.467l1.846,1.066c0.239,0.138,0.321,0.444,0.183,0.683
	c-0.089,0.154-0.255,0.25-0.434,0.25c-0.087,0-0.173-0.023-0.249-0.067l-1.846-1.066L23.488,20.9l0.06,0.932l0.112,1.732
	c0.017,0.276-0.193,0.515-0.499,0.534c-0.262,0-0.481-0.206-0.499-0.468l-0.198-3.064l-0.017-0.267l-0.232-0.134l-4.965-2.866
	l-0.75-0.433v0.866v5.733v0.268l0.223,0.148l2.555,1.703c0.229,0.153,0.291,0.464,0.139,0.693c-0.093,0.139-0.249,0.223-0.417,0.223
	c-0.098,0-0.194-0.029-0.276-0.084l-1.445-0.963L16.5,24.934v0.934V28c0,0.276-0.224,0.5-0.5,0.5s-0.5-0.224-0.5-0.5v-2.131v-0.934
	l-0.777,0.518l-1.444,0.962c-0.083,0.055-0.179,0.084-0.278,0.084c-0.168,0-0.324-0.083-0.417-0.222
	c-0.153-0.23-0.091-0.541,0.138-0.694l2.555-1.703l0.223-0.148v-0.268v-5.733v-0.866l-0.75,0.433l-4.965,2.866l-0.232,0.134
	l-0.017,0.267L9.339,23.63c-0.017,0.262-0.235,0.467-0.529,0.467c-0.001,0-0.001,0-0.002,0c-0.275-0.018-0.484-0.256-0.467-0.531
	l0.112-1.733l0.06-0.932l-0.809,0.467l-1.846,1.066C5.78,22.478,5.697,22.5,5.608,22.5c-0.178,0-0.345-0.096-0.434-0.25
	c-0.138-0.239-0.056-0.545,0.183-0.683l1.846-1.066l0.809-0.467L7.175,19.62l-1.557-0.77c-0.247-0.122-0.349-0.423-0.227-0.67
	c0.085-0.172,0.257-0.279,0.449-0.279c0.077,0,0.151,0.018,0.221,0.052l2.753,1.361l0.24,0.119l0.232-0.134l4.965-2.866L15,16
	l-0.75-0.433l-4.965-2.866l-0.232-0.134l-0.24,0.119l-2.752,1.361c-0.07,0.035-0.144,0.052-0.221,0.052
	c-0.192,0-0.364-0.107-0.449-0.279c-0.122-0.247-0.02-0.547,0.227-0.67l1.557-0.77l0.837-0.414l-0.809-0.467l-1.846-1.066
	C5.119,10.295,5.037,9.989,5.175,9.75C5.264,9.596,5.43,9.5,5.608,9.5c0.088,0,0.172,0.023,0.249,0.067l1.846,1.066L8.512,11.1
	l-0.06-0.932L8.341,8.434C8.323,8.159,8.533,7.921,8.84,7.902c0.263,0,0.482,0.206,0.499,0.468l0.198,3.064l0.017,0.267l0.232,0.134
	l4.965,2.866l0.75,0.433v-0.866V8.535V8.268l-0.223-0.148l-2.555-1.703c-0.229-0.153-0.291-0.464-0.139-0.693
	C12.677,5.583,12.832,5.5,13,5.5c0.099,0,0.195,0.029,0.277,0.084l1.445,0.963L15.5,7.066V6.131V4C15.5,3.724,15.724,3.5,16,3.5
	 M16,3c-0.553,0-1,0.448-1,1v2.131l-1.445-0.963C13.384,5.055,13.191,5,13,5c-0.323,0-0.639,0.156-0.832,0.445
	c-0.306,0.46-0.182,1.08,0.277,1.387L15,8.535v5.733l-4.965-2.866L9.838,8.338C9.803,7.808,9.363,7.402,8.84,7.402
	c-0.021,0-0.043,0.001-0.065,0.002C8.224,7.44,7.807,7.916,7.842,8.466L7.953,10.2L6.108,9.134C5.95,9.043,5.778,9,5.608,9
	C5.263,9,4.927,9.179,4.742,9.5c-0.276,0.479-0.112,1.09,0.366,1.366l1.846,1.066l-1.557,0.77c-0.495,0.246-0.698,0.844-0.453,1.34
	c0.175,0.353,0.529,0.557,0.897,0.557c0.149,0,0.3-0.033,0.442-0.104l2.753-1.361L14,16l-4.965,2.866l-2.753-1.361
	c-0.143-0.07-0.294-0.104-0.442-0.104c-0.368,0-0.722,0.204-0.897,0.557c-0.245,0.496-0.041,1.095,0.453,1.34l1.557,0.77
	l-1.846,1.066C4.629,21.41,4.465,22.021,4.742,22.5C4.927,22.821,5.263,23,5.608,23c0.17,0,0.342-0.043,0.499-0.134L7.953,21.8
	l-0.112,1.733c-0.034,0.552,0.382,1.027,0.934,1.062c0.022,0.001,0.043,0.002,0.065,0.002c0.523,0,0.963-0.406,0.997-0.936
	l0.198-3.064L15,17.732v5.733l-2.555,1.703c-0.459,0.307-0.583,0.927-0.277,1.387c0.193,0.289,0.51,0.445,0.833,0.445
	c0.191,0,0.383-0.054,0.554-0.167L15,25.869V28c0,0.552,0.447,1,1,1s1-0.448,1-1v-2.131l1.445,0.963
	C18.616,26.945,18.809,27,18.999,27c0.323,0,0.64-0.156,0.833-0.445c0.306-0.46,0.182-1.08-0.277-1.387L17,23.465v-5.733
	l4.965,2.866l0.198,3.064c0.034,0.53,0.474,0.936,0.997,0.936c0.021,0,0.043-0.001,0.065-0.002c0.551-0.036,0.967-0.511,0.934-1.062
	L24.047,21.8l1.846,1.066C26.05,22.957,26.222,23,26.392,23c0.345,0,0.681-0.179,0.867-0.5c0.276-0.479,0.112-1.09-0.366-1.366
	l-1.846-1.066l1.557-0.77c0.183-0.091,0.327-0.231,0.422-0.396c0.162-0.28,0.185-0.633,0.031-0.944
	c-0.175-0.353-0.529-0.557-0.897-0.557c-0.149,0-0.3,0.033-0.442,0.104l-2.753,1.361L18,16l4.965-2.866l2.753,1.361
	c0.143,0.07,0.294,0.104,0.442,0.104c0.368,0,0.722-0.204,0.897-0.557c0.244-0.495,0.041-1.093-0.453-1.34l-1.557-0.77l1.846-1.066
	c0.478-0.276,0.642-0.887,0.366-1.366C27.073,9.179,26.737,9,26.392,9c-0.17,0-0.342,0.043-0.499,0.134L24.047,10.2l0.112-1.733
	c0.013-0.204-0.036-0.399-0.131-0.563c-0.162-0.28-0.455-0.476-0.802-0.499c-0.022-0.001-0.043-0.002-0.065-0.002
	c-0.523,0-0.963,0.406-0.997,0.936l-0.198,3.064L17,14.268V8.535l2.555-1.703c0.459-0.307,0.583-0.927,0.277-1.387
	C19.639,5.156,19.322,5,18.999,5c-0.191,0-0.383,0.054-0.554,0.168L17,6.131V4C17,3.448,16.553,3,16,3L16,3z"/>
</svg>