<?xml version="1.0" encoding="iso-8859-1"?>
<!-- Generator: Adobe Illustrator 25.2.3, SVG Export Plug-In . SVG Version: 6.00 Build 0)  -->
<svg version="1.1" baseProfile="basic" id="Layer_2"
	 xmlns="http://www.w3.org/2000/svg" xmlns:xlink="http://www.w3.org/1999/xlink" x="0px" y="0px" viewBox="0 0 32 32"
	 xml:space="preserve">
<linearGradient id="SVGID_1_" gradientUnits="userSpaceOnUse" x1="7.8735" y1="5.8128" x2="23.6244" y2="21.5637">
	<stop  offset="0" style="stop-color:#7259FF;stop-opacity:0.95"/>
	<stop  offset="1" style="stop-color:#7259FF;stop-opacity:0.5"/>
</linearGradient>
<path style="fill:url(#SVGID_1_);" d="M29,13.5C29,9.91,26.09,7,22.5,7c-0.029,0-0.057,0.004-0.085,0.004
	C21.228,4.071,18.358,2,15,2c-4.418,0-8,3.582-8,8c0,0.034,0.005,0.067,0.005,0.1C4.72,10.562,3,12.579,3,15c0,2.761,2.239,5,5,5h15
	v-0.025C26.355,19.719,29,16.921,29,13.5z"/>
<linearGradient id="SVGID_2_" gradientUnits="userSpaceOnUse" x1="7.8735" y1="5.8128" x2="23.6244" y2="21.5637">
	<stop  offset="0.0017" style="stop-color:#FFFFFF;stop-opacity:0.6"/>
	<stop  offset="0.4927" style="stop-color:#FFFFFF;stop-opacity:0"/>
	<stop  offset="0.9959" style="stop-color:#FFFFFF;stop-opacity:0.3"/>
</linearGradient>
<path style="fill:url(#SVGID_2_);" d="M15,2.5c3.07,0,5.798,1.842,6.951,4.692l0.128,0.317l0.342-0.004L22.5,7.5
	c3.308,0,6,2.692,6,6c0,3.114-2.433,5.739-5.538,5.976L22.78,19.5H8c-2.481,0-4.5-2.019-4.5-4.5c0-2.133,1.516-3.988,3.604-4.41
	l0.406-0.082l-0.005-0.414l-0.004-0.079L7.5,10C7.5,5.865,10.865,2.5,15,2.5 M15,2c-4.418,0-8,3.582-8,8
	c0,0.034,0.005,0.067,0.005,0.1C4.72,10.562,3,12.579,3,15c0,2.761,2.239,5,5,5h15v-0.025c3.355-0.256,6-3.054,6-6.475
	C29,9.91,26.09,7,22.5,7c-0.029,0-0.057,0.004-0.085,0.004C21.228,4.071,18.358,2,15,2L15,2z"/>
<linearGradient id="SVGID_3_" gradientUnits="userSpaceOnUse" x1="5.5095" y1="23.0764" x2="7.3568" y2="24.9237">
	<stop  offset="0" style="stop-color:#2680FF;stop-opacity:0.95"/>
	<stop  offset="1" style="stop-color:#2680FF;stop-opacity:0.5"/>
</linearGradient>
<path style="fill:url(#SVGID_3_);" d="M5.865,26c-0.167,0-0.336-0.042-0.492-0.13c-0.48-0.272-0.649-0.883-0.377-1.363l1.134-2
	c0.273-0.479,0.881-0.648,1.363-0.377c0.48,0.272,0.649,0.883,0.377,1.363l-1.134,2C6.552,25.817,6.214,26,5.865,26z"/>
<linearGradient id="SVGID_4_" gradientUnits="userSpaceOnUse" x1="5.5095" y1="23.0764" x2="7.3568" y2="24.9237">
	<stop  offset="0" style="stop-color:#FFFFFF;stop-opacity:0.6"/>
	<stop  offset="0.4927" style="stop-color:#FFFFFF;stop-opacity:0"/>
	<stop  offset="0.9971" style="stop-color:#FFFFFF;stop-opacity:0.3"/>
</linearGradient>
<path style="fill:url(#SVGID_4_);" d="M7.001,22.5L7.001,22.5c0.087,0,0.17,0.022,0.245,0.065c0.116,0.066,0.2,0.173,0.236,0.302
	c0.036,0.129,0.019,0.264-0.047,0.38l-1.133,1.999C6.213,25.403,6.045,25.5,5.865,25.5c-0.086,0-0.17-0.022-0.246-0.065
	c-0.116-0.066-0.2-0.173-0.236-0.302c-0.036-0.129-0.019-0.264,0.047-0.38l1.133-1.999C6.654,22.598,6.821,22.5,7.001,22.5
	 M7.001,22c-0.348,0-0.686,0.182-0.871,0.507l-1.134,2c-0.272,0.48-0.104,1.091,0.377,1.363C5.529,25.958,5.698,26,5.865,26
	c0.349,0,0.687-0.183,0.871-0.507l1.134-2c0.272-0.48,0.104-1.091-0.377-1.363C7.337,22.042,7.168,22,7.001,22L7.001,22z"/>
<linearGradient id="SVGID_5_" gradientUnits="userSpaceOnUse" x1="8.5095" y1="26.0764" x2="10.3568" y2="27.9237">
	<stop  offset="0" style="stop-color:#2680FF;stop-opacity:0.95"/>
	<stop  offset="1" style="stop-color:#2680FF;stop-opacity:0.5"/>
</linearGradient>
<path style="fill:url(#SVGID_5_);" d="M8.865,29c-0.167,0-0.336-0.042-0.492-0.13c-0.48-0.272-0.649-0.883-0.377-1.363l1.134-2
	c0.273-0.479,0.881-0.648,1.363-0.377c0.48,0.272,0.649,0.883,0.377,1.363l-1.134,2C9.552,28.817,9.214,29,8.865,29z"/>
<linearGradient id="SVGID_6_" gradientUnits="userSpaceOnUse" x1="8.5095" y1="26.0764" x2="10.3568" y2="27.9237">
	<stop  offset="0" style="stop-color:#FFFFFF;stop-opacity:0.6"/>
	<stop  offset="0.4927" style="stop-color:#FFFFFF;stop-opacity:0"/>
	<stop  offset="0.9971" style="stop-color:#FFFFFF;stop-opacity:0.3"/>
</linearGradient>
<path style="fill:url(#SVGID_6_);" d="M10.001,25.5L10.001,25.5c0.087,0,0.17,0.022,0.245,0.065c0.116,0.066,0.2,0.173,0.236,0.302
	c0.036,0.129,0.019,0.264-0.047,0.38l-1.133,1.999C9.213,28.403,9.045,28.5,8.865,28.5c-0.086,0-0.17-0.022-0.246-0.065
	c-0.116-0.066-0.2-0.173-0.236-0.302c-0.036-0.129-0.019-0.264,0.047-0.38l1.133-1.999C9.654,25.598,9.821,25.5,10.001,25.5
	 M10.001,25c-0.348,0-0.686,0.182-0.871,0.507l-1.134,2c-0.272,0.48-0.104,1.091,0.377,1.363C8.529,28.958,8.698,29,8.865,29
	c0.349,0,0.687-0.183,0.871-0.507l1.134-2c0.272-0.48,0.104-1.091-0.377-1.363C10.337,25.042,10.168,25,10.001,25L10.001,25z"/>
<linearGradient id="SVGID_7_" gradientUnits="userSpaceOnUse" x1="22.5095" y1="23.0764" x2="24.3568" y2="24.9237">
	<stop  offset="0" style="stop-color:#2680FF;stop-opacity:0.95"/>
	<stop  offset="1" style="stop-color:#2680FF;stop-opacity:0.5"/>
</linearGradient>
<path style="fill:url(#SVGID_7_);" d="M22.865,26c-0.167,0-0.336-0.042-0.492-0.13c-0.48-0.272-0.649-0.883-0.377-1.363l1.134-2
	c0.273-0.479,0.881-0.648,1.363-0.377c0.48,0.272,0.649,0.883,0.377,1.363l-1.134,2C23.552,25.817,23.214,26,22.865,26z"/>
<linearGradient id="SVGID_8_" gradientUnits="userSpaceOnUse" x1="22.5095" y1="23.0764" x2="24.3568" y2="24.9237">
	<stop  offset="0" style="stop-color:#FFFFFF;stop-opacity:0.6"/>
	<stop  offset="0.4927" style="stop-color:#FFFFFF;stop-opacity:0"/>
	<stop  offset="0.9971" style="stop-color:#FFFFFF;stop-opacity:0.3"/>
</linearGradient>
<path style="fill:url(#SVGID_8_);" d="M24.001,22.5L24.001,22.5c0.087,0,0.17,0.022,0.245,0.065c0.116,0.066,0.2,0.173,0.236,0.302
	c0.036,0.129,0.019,0.264-0.047,0.38l-1.133,1.999c-0.089,0.157-0.257,0.254-0.437,0.254c-0.086,0-0.17-0.022-0.246-0.065
	c-0.116-0.066-0.2-0.173-0.236-0.302c-0.036-0.129-0.019-0.264,0.047-0.38l1.133-1.999C23.654,22.598,23.821,22.5,24.001,22.5
	 M24.001,22c-0.348,0-0.686,0.182-0.871,0.507l-1.134,2c-0.272,0.48-0.104,1.091,0.377,1.363c0.156,0.088,0.325,0.13,0.492,0.13
	c0.349,0,0.687-0.183,0.871-0.507l1.134-2c0.272-0.48,0.104-1.091-0.377-1.363C24.337,22.042,24.168,22,24.001,22L24.001,22z"/>
<linearGradient id="SVGID_9_" gradientUnits="userSpaceOnUse" x1="25.5095" y1="26.0764" x2="27.3568" y2="27.9237">
	<stop  offset="0" style="stop-color:#2680FF;stop-opacity:0.95"/>
	<stop  offset="1" style="stop-color:#2680FF;stop-opacity:0.5"/>
</linearGradient>
<path style="fill:url(#SVGID_9_);" d="M25.865,29c-0.167,0-0.336-0.042-0.492-0.13c-0.48-0.272-0.649-0.883-0.377-1.363l1.134-2
	c0.273-0.479,0.881-0.648,1.363-0.377c0.48,0.272,0.649,0.883,0.377,1.363l-1.134,2C26.552,28.817,26.214,29,25.865,29z"/>
<linearGradient id="SVGID_10_" gradientUnits="userSpaceOnUse" x1="25.5095" y1="26.0764" x2="27.3568" y2="27.9237">
	<stop  offset="0" style="stop-color:#FFFFFF;stop-opacity:0.6"/>
	<stop  offset="0.4927" style="stop-color:#FFFFFF;stop-opacity:0"/>
	<stop  offset="0.9971" style="stop-color:#FFFFFF;stop-opacity:0.3"/>
</linearGradient>
<path style="fill:url(#SVGID_10_);" d="M27.001,25.5L27.001,25.5c0.087,0,0.17,0.022,0.245,0.065c0.116,0.066,0.2,0.173,0.236,0.302
	c0.036,0.129,0.019,0.264-0.047,0.38l-1.133,1.999c-0.089,0.157-0.257,0.254-0.437,0.254c-0.086,0-0.17-0.022-0.246-0.065
	c-0.116-0.066-0.2-0.173-0.236-0.302c-0.036-0.129-0.019-0.264,0.047-0.38l1.133-1.999C26.654,25.598,26.821,25.5,27.001,25.5
	 M27.001,25c-0.348,0-0.686,0.182-0.871,0.507l-1.134,2c-0.272,0.48-0.104,1.091,0.377,1.363c0.156,0.088,0.325,0.13,0.492,0.13
	c0.349,0,0.687-0.183,0.871-0.507l1.134-2c0.272-0.48,0.104-1.091-0.377-1.363C27.337,25.042,27.168,25,27.001,25L27.001,25z"/>
<linearGradient id="SVGID_11_" gradientUnits="userSpaceOnUse" x1="12.5464" y1="22.7467" x2="17.2534" y2="27.4537">
	<stop  offset="0" style="stop-color:#FFBB00;stop-opacity:0.95"/>
	<stop  offset="1" style="stop-color:#FFBB00;stop-opacity:0.5"/>
</linearGradient>
<path style="fill:url(#SVGID_11_);" d="M13.5,31c-0.097,0-0.194-0.028-0.278-0.085c-0.199-0.133-0.275-0.389-0.183-0.608L14.848,26
	H13c-0.164,0-0.317-0.08-0.411-0.215c-0.093-0.135-0.114-0.308-0.057-0.461l1.5-4C14.105,21.129,14.292,21,14.5,21h3.6
	c0.176,0,0.338,0.092,0.429,0.243c0.091,0.15,0.095,0.337,0.013,0.492L17.333,24H19.5c0.202,0,0.385,0.122,0.462,0.309
	s0.034,0.402-0.108,0.545l-6,6C13.757,30.95,13.629,31,13.5,31z"/>
<linearGradient id="SVGID_12_" gradientUnits="userSpaceOnUse" x1="12.5464" y1="22.7467" x2="17.2534" y2="27.4537">
	<stop  offset="0" style="stop-color:#FFFFFF;stop-opacity:0.6"/>
	<stop  offset="0.4927" style="stop-color:#FFFFFF;stop-opacity:0"/>
	<stop  offset="0.9971" style="stop-color:#FFFFFF;stop-opacity:0.3"/>
</linearGradient>
<path style="fill:url(#SVGID_12_);" d="M18.1,21.5L18.1,21.5l-1.208,2.265L16.5,24.5h0.833l2.167,0l-6,6l1.809-4.307L15.6,25.5
	h-0.752L13,25.5l1.5-4H18.1 M18.1,21h-3.6c-0.208,0-0.395,0.129-0.468,0.324l-1.5,4c-0.058,0.153-0.036,0.326,0.057,0.461
	C12.683,25.92,12.836,26,13,26h1.848l-1.809,4.307c-0.093,0.22-0.017,0.476,0.183,0.608C13.306,30.972,13.403,31,13.5,31
	c0.129,0,0.257-0.05,0.354-0.146l6-6c0.143-0.143,0.186-0.358,0.108-0.545S19.702,24,19.5,24h-2.167l1.208-2.265
	c0.082-0.155,0.078-0.342-0.013-0.492C18.437,21.092,18.275,21,18.1,21L18.1,21z"/>
</svg>