<svg xmlns="http://www.w3.org/2000/svg" xmlns:xlink="http://www.w3.org/1999/xlink" viewBox="0,0,256,256" width="128px" height="128px" fill-rule="nonzero"><defs><linearGradient x1="10.586" y1="15" x2="19.414" y2="23.828" gradientUnits="userSpaceOnUse" id="color-1"><stop offset="0" stop-color="#3e37ff" stop-opacity="0.94902"></stop><stop offset="1" stop-color="#0000c0" stop-opacity="0.50196"></stop></linearGradient><linearGradient x1="21.793" y1="5.793" x2="24.207" y2="8.207" gradientUnits="userSpaceOnUse" id="color-2"><stop offset="0" stop-color="#3e37ff" stop-opacity="0.94902"></stop><stop offset="1" stop-color="#0000c0" stop-opacity="0.50196"></stop></linearGradient><linearGradient x1="21.793" y1="5.793" x2="24.207" y2="8.207" gradientUnits="userSpaceOnUse" id="color-3"><stop offset="0" stop-color="#ffffff" stop-opacity="0.6"></stop><stop offset="0.493" stop-color="#ffffff" stop-opacity="0"></stop><stop offset="0.997" stop-color="#ffffff" stop-opacity="0.30196"></stop></linearGradient><linearGradient x1="21.793" y1="8.793" x2="24.207" y2="11.207" gradientUnits="userSpaceOnUse" id="color-4"><stop offset="0" stop-color="#3e37ff" stop-opacity="0.94902"></stop><stop offset="1" stop-color="#0000c0" stop-opacity="0.50196"></stop></linearGradient><linearGradient x1="21.793" y1="8.793" x2="24.207" y2="11.207" gradientUnits="userSpaceOnUse" id="color-5"><stop offset="0" stop-color="#ffffff" stop-opacity="0.6"></stop><stop offset="0.493" stop-color="#ffffff" stop-opacity="0"></stop><stop offset="0.997" stop-color="#ffffff" stop-opacity="0.30196"></stop></linearGradient><linearGradient x1="21.793" y1="11.793" x2="24.207" y2="14.207" gradientUnits="userSpaceOnUse" id="color-6"><stop offset="0" stop-color="#3e37ff" stop-opacity="0.94902"></stop><stop offset="1" stop-color="#0000c0" stop-opacity="0.50196"></stop></linearGradient><linearGradient x1="21.793" y1="11.793" x2="24.207" y2="14.207" gradientUnits="userSpaceOnUse" id="color-7"><stop offset="0" stop-color="#ffffff" stop-opacity="0.6"></stop><stop offset="0.493" stop-color="#ffffff" stop-opacity="0"></stop><stop offset="0.997" stop-color="#ffffff" stop-opacity="0.30196"></stop></linearGradient><linearGradient x1="21.793" y1="14.793" x2="24.207" y2="17.207" gradientUnits="userSpaceOnUse" id="color-8"><stop offset="0" stop-color="#3e37ff" stop-opacity="0.94902"></stop><stop offset="1" stop-color="#0000c0" stop-opacity="0.50196"></stop></linearGradient><linearGradient x1="21.793" y1="14.793" x2="24.207" y2="17.207" gradientUnits="userSpaceOnUse" id="color-9"><stop offset="0" stop-color="#ffffff" stop-opacity="0.6"></stop><stop offset="0.493" stop-color="#ffffff" stop-opacity="0"></stop><stop offset="0.997" stop-color="#ffffff" stop-opacity="0.30196"></stop></linearGradient><linearGradient x1="6.966" y1="8.38" x2="23.034" y2="24.447" gradientUnits="userSpaceOnUse" id="color-10"><stop offset="0" stop-color="#00e9ff" stop-opacity="0.94902"></stop><stop offset="1" stop-color="#00e9ff" stop-opacity="0.50196"></stop></linearGradient><linearGradient x1="6.966" y1="8.38" x2="23.034" y2="24.447" gradientUnits="userSpaceOnUse" id="color-11"><stop offset="0" stop-color="#ffffff" stop-opacity="0.6"></stop><stop offset="0.493" stop-color="#ffffff" stop-opacity="0"></stop><stop offset="0.997" stop-color="#ffffff" stop-opacity="0.30196"></stop></linearGradient></defs><g fill="none" fill-rule="nonzero" stroke="none" stroke-width="1" stroke-linecap="butt" stroke-linejoin="miter" stroke-miterlimit="10" stroke-dasharray="" stroke-dashoffset="0" font-family="none" font-weight="none" font-size="none" text-anchor="none" style="mix-blend-mode: normal"><g transform="scale(8,8)"><path d="M16,21.184v-9.184c0,-0.553 -0.447,-1 -1,-1c-0.553,0 -1,0.447 -1,1v9.184c-1.163,0.413 -2,1.512 -2,2.816c0,1.657 1.343,3 3,3c1.657,0 3,-1.343 3,-3c0,-1.304 -0.837,-2.403 -2,-2.816z" fill="url(#color-1)"></path><path d="M24,8h-2c-0.553,0 -1,-0.447 -1,-1c0,-0.553 0.447,-1 1,-1h2c0.553,0 1,0.447 1,1c0,0.553 -0.447,1 -1,1z" fill="url(#color-2)"></path><path d="M24,6.5c0.276,0 0.5,0.224 0.5,0.5c0,0.276 -0.224,0.5 -0.5,0.5h-2c-0.276,0 -0.5,-0.224 -0.5,-0.5c0,-0.276 0.224,-0.5 0.5,-0.5h2M24,6h-2c-0.553,0 -1,0.447 -1,1c0,0.553 0.447,1 1,1h2c0.553,0 1,-0.447 1,-1c0,-0.553 -0.447,-1 -1,-1z" fill="url(#color-3)"></path><path d="M24,11h-2c-0.553,0 -1,-0.447 -1,-1c0,-0.553 0.447,-1 1,-1h2c0.553,0 1,0.447 1,1c0,0.553 -0.447,1 -1,1z" fill="url(#color-4)"></path><path d="M24,9.5c0.276,0 0.5,0.224 0.5,0.5c0,0.276 -0.224,0.5 -0.5,0.5h-2c-0.276,0 -0.5,-0.224 -0.5,-0.5c0,-0.276 0.224,-0.5 0.5,-0.5h2M24,9h-2c-0.553,0 -1,0.447 -1,1c0,0.553 0.447,1 1,1h2c0.553,0 1,-0.447 1,-1c0,-0.553 -0.447,-1 -1,-1z" fill="url(#color-5)"></path><path d="M24,14h-2c-0.553,0 -1,-0.447 -1,-1c0,-0.553 0.447,-1 1,-1h2c0.553,0 1,0.447 1,1c0,0.553 -0.447,1 -1,1z" fill="url(#color-6)"></path><path d="M24,12.5c0.276,0 0.5,0.224 0.5,0.5c0,0.276 -0.224,0.5 -0.5,0.5h-2c-0.276,0 -0.5,-0.224 -0.5,-0.5c0,-0.276 0.224,-0.5 0.5,-0.5h2M24,12h-2c-0.553,0 -1,0.447 -1,1c0,0.553 0.447,1 1,1h2c0.553,0 1,-0.447 1,-1c0,-0.553 -0.447,-1 -1,-1z" fill="url(#color-7)"></path><path d="M24,17h-2c-0.553,0 -1,-0.447 -1,-1c0,-0.553 0.447,-1 1,-1h2c0.553,0 1,0.447 1,1c0,0.553 -0.447,1 -1,1z" fill="url(#color-8)"></path><path d="M24,15.5c0.276,0 0.5,0.224 0.5,0.5c0,0.276 -0.224,0.5 -0.5,0.5h-2c-0.276,0 -0.5,-0.224 -0.5,-0.5c0,-0.276 0.224,-0.5 0.5,-0.5h2M24,15h-2c-0.553,0 -1,0.447 -1,1c0,0.553 0.447,1 1,1h2c0.553,0 1,-0.447 1,-1c0,-0.553 -0.447,-1 -1,-1z" fill="url(#color-9)"></path><path d="M15,30c-3.309,0 -6,-2.691 -6,-6c0,-1.713 0.723,-3.308 2,-4.449v-13.551c0,-2.206 1.794,-4 4,-4c2.206,0 4,1.794 4,4v13.551c1.277,1.142 2,2.736 2,4.449c0,3.309 -2.691,6 -6,6zM16,21.184v-9.184c0,-0.553 -0.447,-1 -1,-1c-0.553,0 -1,0.447 -1,1v9.184c-1.163,0.413 -2,1.512 -2,2.816c0,1.657 1.343,3 3,3c1.657,0 3,-1.343 3,-3c0,-1.304 -0.837,-2.403 -2,-2.816z" fill="url(#color-10)"></path><path d="M15,2.5c1.93,0 3.5,1.57 3.5,3.5v13.551v0.224l0.167,0.149c1.182,1.056 1.833,2.504 1.833,4.076c0,3.033 -2.467,5.5 -5.5,5.5c-3.033,0 -5.5,-2.467 -5.5,-5.5c0,-1.572 0.651,-3.02 1.833,-4.076l0.167,-0.149v-0.224v-13.551c0,-1.93 1.57,-3.5 3.5,-3.5M15,2c-2.206,0 -4,1.794 -4,4v13.551c-1.277,1.141 -2,2.736 -2,4.449c0,3.309 2.691,6 6,6c3.309,0 6,-2.691 6,-6c0,-1.713 -0.723,-3.308 -2,-4.449v-13.551c0,-2.206 -1.794,-4 -4,-4z" fill="url(#color-11)"></path></g></g></svg>