<svg xmlns="http://www.w3.org/2000/svg" xmlns:xlink="http://www.w3.org/1999/xlink" viewBox="0,0,256,256" width="192px" height="192px" fill-rule="nonzero"><defs><linearGradient x1="0.27" y1="2.902" x2="17.259" y2="19.891" gradientUnits="userSpaceOnUse" id="color-1"><stop offset="0" stop-color="#ff1000" stop-opacity="0.70196"></stop><stop offset="1" stop-color="#ff1000" stop-opacity="0.32941"></stop></linearGradient><linearGradient x1="0.27" y1="2.902" x2="17.259" y2="19.891" gradientUnits="userSpaceOnUse" id="color-2"><stop offset="0" stop-color="#ff1000" stop-opacity="0.70196"></stop><stop offset="0.493" stop-color="#080606" stop-opacity="0.41961"></stop><stop offset="0.997" stop-color="#ff1000" stop-opacity="0.32941"></stop></linearGradient><linearGradient x1="-2.061" y1="5.232" x2="10.061" y2="17.354" gradientUnits="userSpaceOnUse" id="color-3"><stop offset="0" stop-color="#fbfbfb" stop-opacity="0.65882"></stop><stop offset="0.519" stop-color="#ffffff" stop-opacity="0.61176"></stop><stop offset="1" stop-color="#f9feff" stop-opacity="0.65098"></stop></linearGradient><linearGradient x1="6.221" y1="7.485" x2="14.25" y2="15.515" gradientUnits="userSpaceOnUse" id="color-4"><stop offset="0" stop-color="#fbfbfb" stop-opacity="0.65882"></stop><stop offset="0.519" stop-color="#ffffff" stop-opacity="0.61176"></stop><stop offset="1" stop-color="#f9feff" stop-opacity="0.65098"></stop></linearGradient><linearGradient x1="13.838" y1="8.103" x2="20.632" y2="14.897" gradientUnits="userSpaceOnUse" id="color-5"><stop offset="0" stop-color="#fbfbfb" stop-opacity="0.65882"></stop><stop offset="0.519" stop-color="#ffffff" stop-opacity="0.61176"></stop><stop offset="1" stop-color="#f9feff" stop-opacity="0.65098"></stop></linearGradient></defs><g transform=""><g fill="none" fill-rule="nonzero" stroke="none" stroke-width="1" stroke-linecap="butt" stroke-linejoin="miter" stroke-miterlimit="10" stroke-dasharray="" stroke-dashoffset="0" font-family="none" font-weight="none" font-size="none" text-anchor="none" style="mix-blend-mode: normal"><g transform="scale(10.66667,10.66667)"><path d="M20.347,6.708l-15.347,-2.708v-0.277c0.595,-0.347 1,-0.985 1,-1.723c0,-1.104 -0.895,-2 -2,-2c-1.105,0 -2,0.896 -2,2c0,0.738 0.405,1.376 1,1.723v18.277c0,0.552 0.448,1 1,1c0.552,0 1,-0.448 1,-1v-3l15.347,-2.708c0.956,-0.169 1.653,-1 1.653,-1.97v-5.644c0,-0.97 -0.697,-1.801 -1.653,-1.97z" fill="url(#color-1)"></path><path d="M4,0.5c0.827,0 1.5,0.673 1.5,1.5c0,0.534 -0.281,1.017 -0.751,1.291l-0.249,0.144v0.288v0.277v0.419l0.413,0.073l15.348,2.708c0.718,0.127 1.239,0.749 1.239,1.478v5.644c0,0.729 -0.521,1.351 -1.239,1.477l-15.348,2.709l-0.413,0.073v0.419v3c0,0.276 -0.224,0.5 -0.5,0.5c-0.276,0 -0.5,-0.224 -0.5,-0.5v-18.277v-0.288l-0.249,-0.144c-0.47,-0.274 -0.751,-0.757 -0.751,-1.291c0,-0.827 0.673,-1.5 1.5,-1.5M4,0c-1.105,0 -2,0.896 -2,2c0,0.738 0.405,1.376 1,1.723v18.277c0,0.552 0.448,1 1,1c0.552,0 1,-0.448 1,-1v-3l15.347,-2.708c0.956,-0.169 1.653,-1 1.653,-1.97v-5.644c0,-0.97 -0.697,-1.801 -1.653,-1.969l-15.347,-2.709v-0.277c0.595,-0.347 1,-0.985 1,-1.723c0,-1.104 -0.895,-2 -2,-2z" fill="url(#color-2)"></path><path d="M6,2c0,-1.104 -0.895,-2 -2,-2c-1.105,0 -2,0.896 -2,2c0,0.738 0.405,1.376 1,1.723v18.277c0,0.552 0.448,1 1,1c0.552,0 1,-0.448 1,-1v-18.277c0.595,-0.347 1,-0.985 1,-1.723z" fill="url(#color-3)"></path><path d="M9,4.706v13.588l3,-0.529v-12.53z" fill="url(#color-4)"></path><path d="M16,5.941v11.118l3,-0.53v-10.058z" fill="url(#color-5)"></path></g></g></g></svg>