<?xml version="1.0" encoding="iso-8859-1"?>
<!-- Generator: Adobe Illustrator 25.2.3, SVG Export Plug-In . SVG Version: 6.00 Build 0)  -->
<svg version="1.1" baseProfile="basic" id="Layer_2"
	 xmlns="http://www.w3.org/2000/svg" xmlns:xlink="http://www.w3.org/1999/xlink" x="0px" y="0px" viewBox="0 0 32 32"
	 xml:space="preserve">
<linearGradient id="SVGID_1_" gradientUnits="userSpaceOnUse" x1="5.8929" y1="18.3296" x2="17.2162" y2="29.6529">
	<stop  offset="0" style="stop-color:#2680FF;stop-opacity:0.95"/>
	<stop  offset="1" style="stop-color:#2680FF;stop-opacity:0.5"/>
</linearGradient>
<path style="fill:url(#SVGID_1_);" d="M16.001,29.286c-2.109,0-3.825-1.717-3.825-3.826c0-0.553,0.447-1,1-1s1,0.447,1,1
	c0,1.007,0.818,1.826,1.825,1.826s1.826-0.819,1.826-1.826c0-0.854-0.442-1.595-1.315-2.199c-1.997-1.385-6.641-2.134-13.158,0.31
	c-0.513,0.192-1.093-0.067-1.287-0.586c-0.193-0.517,0.068-1.093,0.586-1.287c7.233-2.711,12.49-1.82,14.999-0.08
	c1.402,0.972,2.176,2.337,2.176,3.843C19.827,27.569,18.11,29.286,16.001,29.286z"/>
<linearGradient id="SVGID_2_" gradientUnits="userSpaceOnUse" x1="5.8929" y1="18.3296" x2="17.2162" y2="29.653">
	<stop  offset="0" style="stop-color:#FFFFFF;stop-opacity:0.6"/>
	<stop  offset="0.4927" style="stop-color:#FFFFFF;stop-opacity:0"/>
	<stop  offset="0.9971" style="stop-color:#FFFFFF;stop-opacity:0.3"/>
</linearGradient>
<path style="fill:url(#SVGID_2_);" d="M11.237,20.474c2.509,0,4.686,0.552,6.13,1.554c1.264,0.876,1.961,2.095,1.961,3.432
	c0,1.834-1.492,3.326-3.326,3.326c-1.834,0-3.325-1.492-3.325-3.326c0-0.276,0.224-0.5,0.5-0.5s0.5,0.224,0.5,0.5
	c0,1.283,1.043,2.326,2.325,2.326c1.283,0,2.326-1.044,2.326-2.326c0-1.014-0.529-1.917-1.531-2.61
	c-1.278-0.886-3.249-1.374-5.55-1.375c-2.474,0-5.189,0.547-8.069,1.627c-0.056,0.021-0.114,0.031-0.173,0.031
	c-0.208,0-0.397-0.131-0.47-0.325c-0.097-0.258,0.035-0.547,0.293-0.644C5.822,21.043,8.651,20.474,11.237,20.474 M11.237,19.974
	c-2.402,0-5.288,0.487-8.584,1.723c-0.518,0.194-0.779,0.771-0.586,1.287c0.151,0.403,0.534,0.649,0.938,0.649
	c0.116,0,0.234-0.02,0.349-0.063c3.075-1.153,5.733-1.595,7.893-1.595c2.417,0,4.211,0.554,5.265,1.285
	c0.873,0.604,1.315,1.345,1.315,2.199c0,1.007-0.819,1.826-1.826,1.826s-1.825-0.819-1.825-1.826c0-0.553-0.447-1-1-1s-1,0.447-1,1
	c0,2.109,1.716,3.826,3.825,3.826s3.826-1.717,3.826-3.826c0-1.506-0.773-2.871-2.176-3.843
	C16.286,20.67,14.106,19.974,11.237,19.974L11.237,19.974z"/>
<linearGradient id="SVGID_3_" gradientUnits="userSpaceOnUse" x1="9.9129" y1="8.6612" x2="23.7291" y2="22.4775">
	<stop  offset="0" style="stop-color:#2680FF;stop-opacity:0.95"/>
	<stop  offset="1" style="stop-color:#2680FF;stop-opacity:0.5"/>
</linearGradient>
<path style="fill:url(#SVGID_3_);" d="M25.044,19.113c-3.241,0-5.357-0.564-7.599-1.163c-2.03-0.541-4.12-1.098-7.096-1.098
	c-2.559,0-6.646,0.986-7.104,1.099c-0.534,0.139-1.078-0.194-1.209-0.732c-0.132-0.536,0.195-1.077,0.732-1.209
	c0.481-0.119,4.786-1.157,7.58-1.157c3.237,0,5.456,0.591,7.603,1.163c2.119,0.565,4.112,1.098,7.092,1.098
	c1.63,0,2.956-1.326,2.956-2.956s-1.326-2.956-2.956-2.956c-1.456,0-2.714,1.085-2.925,2.522c-0.08,0.547-0.589,0.93-1.134,0.845
	c-0.547-0.08-0.925-0.588-0.845-1.134c0.354-2.414,2.462-4.233,4.903-4.233c2.732,0,4.956,2.224,4.956,4.956
	S27.776,19.113,25.044,19.113z"/>
<linearGradient id="SVGID_4_" gradientUnits="userSpaceOnUse" x1="9.9129" y1="8.6613" x2="23.7291" y2="22.4775">
	<stop  offset="0" style="stop-color:#FFFFFF;stop-opacity:0.6"/>
	<stop  offset="0.4927" style="stop-color:#FFFFFF;stop-opacity:0"/>
	<stop  offset="0.9971" style="stop-color:#FFFFFF;stop-opacity:0.3"/>
</linearGradient>
<path style="fill:url(#SVGID_4_);" d="M25.044,9.701c2.457,0,4.456,1.999,4.456,4.456s-1.999,4.456-4.456,4.456
	c-3.179,0-5.263-0.557-7.47-1.146c-2.056-0.548-4.182-1.115-7.224-1.115c-2.608,0-6.758,0.999-7.229,1.115
	c-0.039,0.01-0.08,0.015-0.12,0.015c-0.223,0-0.424-0.161-0.478-0.383c-0.032-0.13-0.011-0.264,0.058-0.378
	c0.069-0.114,0.179-0.194,0.309-0.227c0.189-0.047,4.65-1.143,7.46-1.143c3.174,0,5.36,0.583,7.477,1.147
	c2.147,0.573,4.174,1.114,7.217,1.114c1.906,0,3.456-1.55,3.456-3.456s-1.55-3.456-3.456-3.456c-1.703,0-3.173,1.268-3.42,2.95
	c-0.036,0.245-0.245,0.429-0.487,0.429c-0.025,0-0.05-0.002-0.079-0.007c-0.132-0.019-0.249-0.089-0.329-0.196
	c-0.08-0.107-0.113-0.238-0.094-0.37C20.953,11.337,22.848,9.701,25.044,9.701 M25.044,9.201c-2.441,0-4.55,1.819-4.903,4.233
	c-0.08,0.546,0.298,1.054,0.845,1.134c0.051,0.008,0.102,0.012,0.152,0.012c0.485,0,0.909-0.361,0.982-0.857
	c0.211-1.438,1.469-2.522,2.925-2.522c1.63,0,2.956,1.326,2.956,2.956s-1.326,2.956-2.956,2.956c-2.979,0-4.973-0.532-7.092-1.098
	c-2.146-0.572-4.365-1.163-7.603-1.163c-2.794,0-7.099,1.038-7.58,1.157c-0.537,0.132-0.864,0.673-0.732,1.209
	c0.111,0.455,0.517,0.764,0.964,0.764c0.081,0,0.163-0.01,0.245-0.031c0.458-0.112,4.545-1.099,7.104-1.099
	c2.976,0,5.065,0.557,7.096,1.098c2.241,0.599,4.357,1.163,7.599,1.163c2.732,0,4.956-2.224,4.956-4.956S27.776,9.201,25.044,9.201
	L25.044,9.201z"/>
<linearGradient id="SVGID_5_" gradientUnits="userSpaceOnUse" x1="7.3894" y1="5.5284" x2="15.6051" y2="13.744">
	<stop  offset="0" style="stop-color:#2680FF;stop-opacity:0.95"/>
	<stop  offset="1" style="stop-color:#2680FF;stop-opacity:0.5"/>
</linearGradient>
<path style="fill:url(#SVGID_5_);" d="M3,12.332c-0.431,0-0.828-0.279-0.958-0.713c-0.158-0.528,0.142-1.086,0.671-1.245
	c0.121-0.036,3.003-0.891,5.941-0.891c1.461,0,2.63,0.073,3.76,0.145c1.132,0.071,2.201,0.138,3.587,0.138
	c1.007,0,1.826-0.818,1.826-1.825s-0.819-1.826-1.826-1.826c-0.721,0-1.376,0.426-1.668,1.084c-0.225,0.504-0.814,0.733-1.32,0.508
	c-0.505-0.225-0.731-0.815-0.508-1.32c0.613-1.38,1.985-2.271,3.496-2.271c2.109,0,3.826,1.717,3.826,3.826
	s-1.717,3.825-3.826,3.825c-1.448,0-2.599-0.072-3.712-0.142c-1.1-0.069-2.236-0.141-3.635-0.141c-2.648,0-5.34,0.799-5.367,0.807
	C3.191,12.318,3.095,12.332,3,12.332z"/>
<linearGradient id="SVGID_6_" gradientUnits="userSpaceOnUse" x1="7.3894" y1="5.5284" x2="15.6051" y2="13.744">
	<stop  offset="0" style="stop-color:#FFFFFF;stop-opacity:0.6"/>
	<stop  offset="0.4927" style="stop-color:#FFFFFF;stop-opacity:0"/>
	<stop  offset="0.9971" style="stop-color:#FFFFFF;stop-opacity:0.3"/>
</linearGradient>
<path style="fill:url(#SVGID_6_);" d="M16.001,4.614c1.834,0,3.326,1.492,3.326,3.326c0,1.834-1.492,3.325-3.326,3.325
	c-1.423,0-2.559-0.071-3.68-0.141c-1.104-0.07-2.246-0.142-3.666-0.142c-2.605,0-5.215,0.741-5.509,0.827
	C3.097,11.825,3.048,11.832,3,11.832c-0.219,0-0.416-0.147-0.479-0.356c-0.079-0.264,0.072-0.543,0.335-0.623
	c0.119-0.035,2.948-0.87,5.798-0.87c1.453,0,2.61,0.073,3.728,0.144c1.083,0.068,2.202,0.139,3.618,0.139
	c1.283,0,2.326-1.043,2.326-2.325c0-1.283-1.044-2.326-2.326-2.326c-0.919,0-1.753,0.542-2.125,1.38
	c-0.081,0.181-0.26,0.298-0.458,0.298c-0.069,0-0.138-0.015-0.203-0.044c-0.252-0.112-0.366-0.409-0.254-0.66
	C13.495,5.389,14.688,4.614,16.001,4.614 M16.001,4.114c-1.511,0-2.883,0.892-3.496,2.271c-0.224,0.505,0.003,1.096,0.508,1.32
	c0.132,0.059,0.27,0.087,0.406,0.087c0.383,0,0.749-0.223,0.914-0.595c0.292-0.658,0.947-1.084,1.668-1.084
	c1.007,0,1.826,0.819,1.826,1.826s-0.819,1.825-1.826,1.825c-1.386,0-2.455-0.066-3.587-0.138c-1.13-0.071-2.299-0.145-3.76-0.145
	c-2.938,0-5.82,0.854-5.941,0.891c-0.529,0.159-0.829,0.717-0.671,1.245c0.13,0.434,0.527,0.713,0.958,0.713
	c0.095,0,0.191-0.014,0.287-0.042c0.027-0.008,2.719-0.807,5.367-0.807c1.398,0,2.535,0.071,3.635,0.141
	c1.113,0.069,2.264,0.142,3.712,0.142c2.109,0,3.826-1.716,3.826-3.825S18.11,4.114,16.001,4.114L16.001,4.114z"/>
</svg>