<?xml version="1.0" encoding="iso-8859-1"?>
<!-- Generator: Adobe Illustrator 25.2.3, SVG Export Plug-In . SVG Version: 6.00 Build 0)  -->
<svg version="1.1" baseProfile="basic" id="Layer_2"
	 xmlns="http://www.w3.org/2000/svg" xmlns:xlink="http://www.w3.org/1999/xlink" x="0px" y="0px" viewBox="0 0 32 32"
	 xml:space="preserve">
<linearGradient id="SVGID_1_" gradientUnits="userSpaceOnUse" x1="7.8731" y1="6.8119" x2="24.2166" y2="23.1553">
	<stop  offset="0" style="stop-color:#2680FF;stop-opacity:0.95"/>
	<stop  offset="1" style="stop-color:#2680FF;stop-opacity:0.5"/>
</linearGradient>
<path style="fill:url(#SVGID_1_);" d="M22.5,8h-0.09C21.23,5.07,18.36,3,15,3c-4.42,0-8,3.58-8,8c0,0.03,0,0.07,0.01,0.1
	C4.72,11.56,3,13.58,3,16c0,2.42,1.72,4.44,4.01,4.9c0.006,0.001,0.012,0.002,0.019,0.004c0.002,0.044-0.005,0.086,0.006,0.131
	c0.132,0.536,0.675,0.868,1.21,0.731c1.136-0.279,3.435-0.753,4.844-0.753c2.015,0,3.376,0.362,4.828,0.748
	c1.501,0.402,3.054,0.817,5.345,0.817c1.935,0,3.513-1.483,3.702-3.369c0.009-0.008,0.018-0.015,0.017-0.009
	c1.25-1.18,2.02-2.85,2.02-4.7C29,10.91,26.09,8,22.5,8z"/>
<linearGradient id="SVGID_2_" gradientUnits="userSpaceOnUse" x1="9.7853" y1="21.5104" x2="18.0597" y2="29.7848">
	<stop  offset="0" style="stop-color:#2680FF;stop-opacity:0.95"/>
	<stop  offset="1" style="stop-color:#2680FF;stop-opacity:0.5"/>
</linearGradient>
<path style="fill:url(#SVGID_2_);" d="M17.001,29.621c-1.63,0-2.956-1.326-2.956-2.956c0-0.553,0.447-1,1-1s1,0.447,1,1
	c0,0.527,0.429,0.956,0.956,0.956s0.956-0.429,0.956-0.956c0-0.484-0.262-0.913-0.778-1.271c-1.32-0.915-4.426-1.397-8.826,0.251
	c-0.514,0.19-1.094-0.067-1.287-0.586c-0.193-0.517,0.068-1.093,0.586-1.287c6.444-2.416,9.793-0.626,10.667-0.021
	c1.058,0.734,1.639,1.77,1.639,2.915C19.957,28.295,18.631,29.621,17.001,29.621z"/>
<linearGradient id="SVGID_3_" gradientUnits="userSpaceOnUse" x1="12.5681" y1="14.8173" x2="22.5679" y2="24.8171">
	<stop  offset="0" style="stop-color:#FFFFFF;stop-opacity:0.8"/>
	<stop  offset="0.5188" style="stop-color:#FFFFFF;stop-opacity:0.5"/>
	<stop  offset="0.9998" style="stop-color:#FFFFFF;stop-opacity:0.6"/>
</linearGradient>
<path style="fill:url(#SVGID_3_);" d="M23.261,22.578c-2.291,0-3.844-0.415-5.345-0.817c-1.452-0.386-2.813-0.748-4.828-0.748
	c-1.409,0-3.708,0.474-4.844,0.753c-0.535,0.137-1.078-0.195-1.21-0.731c-0.133-0.536,0.195-1.078,0.731-1.21
	c0.55-0.136,3.393-0.812,5.322-0.812c2.275,0,3.829,0.413,5.331,0.812c1.454,0.389,2.813,0.753,4.842,0.753
	c0.959,0,1.739-0.78,1.739-1.739c0-0.958-0.78-1.738-1.739-1.738c-0.856,0-1.596,0.638-1.72,1.483
	c-0.079,0.547-0.586,0.933-1.134,0.845c-0.547-0.08-0.925-0.588-0.845-1.134c0.267-1.821,1.856-3.194,3.698-3.194
	c2.062,0,3.739,1.677,3.739,3.738S25.322,22.578,23.261,22.578z"/>
<linearGradient id="SVGID_4_" gradientUnits="userSpaceOnUse" x1="10.8215" y1="12.6482" x2="16.9444" y2="18.7711">
	<stop  offset="0" style="stop-color:#FFFFFF;stop-opacity:0.8"/>
	<stop  offset="0.5188" style="stop-color:#FFFFFF;stop-opacity:0.5"/>
	<stop  offset="0.9998" style="stop-color:#FFFFFF;stop-opacity:0.6"/>
</linearGradient>
<path style="fill:url(#SVGID_4_);" d="M8,17.884c-0.43,0-0.827-0.279-0.957-0.712c-0.159-0.529,0.14-1.086,0.669-1.245
	c0.085-0.026,2.116-0.631,4.202-0.631c1.006,0,1.82,0.051,2.608,0.1c0.817,0.051,1.55,0.097,2.479,0.097
	c0.527,0,0.956-0.43,0.956-0.957s-0.429-0.956-0.956-0.956c-0.378,0-0.721,0.223-0.874,0.567c-0.225,0.506-0.814,0.734-1.32,0.508
	c-0.505-0.225-0.731-0.815-0.508-1.32c0.475-1.066,1.535-1.755,2.702-1.755c1.63,0,2.956,1.326,2.956,2.956
	c0,1.631-1.326,2.957-2.956,2.957c-0.991,0-1.754-0.048-2.561-0.098c-0.8-0.05-1.583-0.099-2.526-0.099
	c-1.789,0-3.607,0.54-3.626,0.546C8.192,17.87,8.096,17.884,8,17.884z"/>
<linearGradient id="SVGID_5_" gradientUnits="userSpaceOnUse" x1="7.8731" y1="6.8119" x2="24.2166" y2="23.1553">
	<stop  offset="0" style="stop-color:#FFFFFF;stop-opacity:0.6"/>
	<stop  offset="0.4927" style="stop-color:#FFFFFF;stop-opacity:0"/>
	<stop  offset="0.9971" style="stop-color:#FFFFFF;stop-opacity:0.3"/>
</linearGradient>
<path style="fill:url(#SVGID_5_);" d="M15,3.5c3.073,0,5.8,1.84,6.946,4.687L22.072,8.5h0.338h0.09c3.308,0,6,2.692,6,6
	c0,1.636-0.641,3.153-1.806,4.282l-0.052,0.044l-0.156,0.131l-0.02,0.203c-0.167,1.664-1.544,2.919-3.204,2.919
	c-2.23,0-3.747-0.407-5.222-0.802c-1.478-0.393-2.874-0.763-4.951-0.763c-1.454,0-3.804,0.482-4.968,0.768
	c-0.04,0.01-0.08,0.015-0.12,0.015c-0.213,0-0.407-0.145-0.472-0.351l0-0.045l-0.001-0.017l-0.034-0.397L7.108,20.41
	C5.018,19.99,3.5,18.135,3.5,16c0-2.135,1.518-3.99,3.608-4.41l0.555-0.112L7.5,10.989C7.506,6.858,10.868,3.5,15,3.5 M15,3
	c-4.42,0-8,3.58-8,8c0,0.03,0,0.07,0.01,0.1C4.72,11.56,3,13.58,3,16c0,2.42,1.72,4.44,4.01,4.9
	c0.006,0.001,0.012,0.002,0.019,0.004c0.002,0.044-0.005,0.086,0.006,0.131C7.146,21.489,7.553,21.796,8,21.796
	c0.08,0,0.162-0.01,0.244-0.031c1.136-0.279,3.435-0.753,4.844-0.753c2.015,0,3.376,0.362,4.828,0.748
	c1.501,0.402,3.054,0.817,5.345,0.817c1.935,0,3.513-1.483,3.702-3.369c0.007-0.006,0.013-0.011,0.016-0.011
	c0.001,0,0.001,0.001,0.001,0.002c1.25-1.18,2.02-2.85,2.02-4.7c0-3.59-2.91-6.5-6.5-6.5h-0.09C21.23,5.07,18.36,3,15,3L15,3z"/>
<linearGradient id="SVGID_6_" gradientUnits="userSpaceOnUse" x1="9.7853" y1="21.5104" x2="18.0597" y2="29.7848">
	<stop  offset="0" style="stop-color:#FFFFFF;stop-opacity:0.6"/>
	<stop  offset="0.4927" style="stop-color:#FFFFFF;stop-opacity:0"/>
	<stop  offset="0.9971" style="stop-color:#FFFFFF;stop-opacity:0.3"/>
</linearGradient>
<path style="fill:url(#SVGID_6_);" d="M13.685,23.043L13.685,23.043c2.466,0,3.863,0.782,4.348,1.117
	c0.918,0.638,1.424,1.527,1.424,2.504c0,1.354-1.102,2.456-2.456,2.456s-2.456-1.102-2.456-2.456c0-0.276,0.224-0.5,0.5-0.5
	s0.5,0.224,0.5,0.5c0,0.803,0.653,1.456,1.456,1.456c0.803,0,1.456-0.653,1.456-1.456c0-0.453-0.172-1.113-0.993-1.682
	c-0.862-0.598-2.192-0.927-3.744-0.927c-1.693,0-3.557,0.377-5.541,1.12c-0.056,0.021-0.115,0.031-0.174,0.031
	c-0.209,0-0.398-0.13-0.471-0.324c-0.097-0.258,0.035-0.547,0.293-0.644C9.944,23.446,11.915,23.043,13.685,23.043 M13.685,22.543
	c-1.588,0-3.588,0.311-6.034,1.228c-0.518,0.194-0.779,0.771-0.586,1.287c0.15,0.403,0.534,0.649,0.939,0.649
	c0.116,0,0.234-0.02,0.348-0.063c2.102-0.788,3.909-1.089,5.367-1.089c1.593,0,2.77,0.36,3.459,0.838
	c0.517,0.358,0.778,0.787,0.778,1.271c0,0.527-0.429,0.956-0.956,0.956s-0.956-0.429-0.956-0.956c0-0.553-0.447-1-1-1s-1,0.447-1,1
	c0,1.63,1.326,2.956,2.956,2.956s2.956-1.326,2.956-2.956c0-1.146-0.581-2.181-1.639-2.915
	C17.776,23.375,16.281,22.543,13.685,22.543L13.685,22.543z"/>
<linearGradient id="SVGID_7_" gradientUnits="userSpaceOnUse" x1="9.7853" y1="21.5104" x2="18.0597" y2="29.7848">
	<stop  offset="0" style="stop-color:#FFFFFF;stop-opacity:0.8"/>
	<stop  offset="0.5188" style="stop-color:#FFFFFF;stop-opacity:0.5"/>
	<stop  offset="0.9998" style="stop-color:#FFFFFF;stop-opacity:0.6"/>
</linearGradient>
<path style="fill:url(#SVGID_7_);" d="M17.001,29.621c-1.63,0-2.956-1.326-2.956-2.956c0-0.553,0.447-1,1-1s1,0.447,1,1
	c0,0.527,0.429,0.956,0.956,0.956s0.956-0.429,0.956-0.956c0-0.484-0.262-0.913-0.778-1.271c-1.32-0.915-4.426-1.397-8.826,0.251
	c-0.514,0.19-1.094-0.067-1.287-0.586c-0.193-0.517,0.068-1.093,0.586-1.287c6.444-2.416,9.793-0.626,10.667-0.021
	c1.058,0.734,1.639,1.77,1.639,2.915C19.957,28.295,18.631,29.621,17.001,29.621z"/>
</svg>
